M48
; DRILL file {KiCad 7.0.8} date 2023 October 21, Saturday 06:46:15
; FORMAT={-:-/ absolute / metric / decimal}
; #@! TF.CreationDate,2023-10-21T06:46:15+09:00
; #@! TF.GenerationSoftware,Kicad,Pcbnew,7.0.8
; #@! TF.FileFunction,Plated,1,2,PTH
FMAT,2
METRIC
; #@! TA.AperFunction,Plated,PTH,ViaDrill
T1C0.400
; #@! TA.AperFunction,Plated,PTH,ComponentDrill
T2C0.813
; #@! TA.AperFunction,Plated,PTH,ComponentDrill
T3C1.000
%
G90
G05
T1
X417.64Y-2.08
X433.7Y36.78
X434.42Y38.47
X439.67Y53.47
X441.53Y53.755
X442.37Y-2.41
X451.01Y63.54
X451.8Y51.57
X451.86Y55.56
X453.31Y55.62
X454.38Y55.58
X454.56Y63.54
X455.372Y55.704
X455.735Y36.835
X455.8Y18.8
X460.844Y-23.314
X474.785Y38.425
X493.835Y52.815
X514.62Y55.28
X519.56Y-4.58
X519.71Y-2.41
X526.0Y-5.01
T2
X418.69Y74.51
X418.69Y59.27
X421.23Y74.51
X421.23Y59.27
X421.47Y51.567
X421.53Y55.76
X423.25Y12.98
X423.291Y15.857
X423.291Y-22.242
X423.77Y74.51
X423.77Y59.27
X426.31Y74.51
X426.31Y59.27
X428.85Y74.51
X428.85Y59.27
X429.09Y51.567
X429.15Y55.76
X430.87Y12.98
X430.911Y15.857
X430.911Y-22.242
X431.39Y74.51
X431.39Y59.27
X433.93Y74.51
X433.93Y59.27
X436.47Y74.51
X436.47Y59.27
X439.01Y74.51
X439.01Y59.27
X440.52Y51.567
X440.58Y55.76
X444.722Y15.857
X444.722Y-22.242
X448.14Y51.567
X448.2Y55.76
X451.757Y12.977
X452.342Y15.857
X452.342Y-22.242
X459.01Y58.72
X459.377Y12.977
X459.57Y51.567
X463.772Y15.857
X465.89Y-22.29
X466.63Y58.72
X467.19Y51.567
X470.808Y12.977
X471.392Y15.857
X473.51Y-22.29
X478.427Y12.977
X478.62Y51.567
X482.822Y58.72
X482.822Y15.857
X486.24Y51.567
X487.8Y-22.29
X489.857Y12.977
X490.442Y58.72
X490.442Y15.857
X495.42Y-22.29
X497.477Y12.977
X497.67Y51.567
X501.873Y58.72
X501.873Y15.857
X504.09Y13.05
X505.29Y51.567
X509.492Y58.72
X509.492Y15.857
X511.71Y13.05
X513.779Y-22.242
X516.72Y51.567
X520.923Y58.72
X520.923Y15.857
X521.399Y-22.242
X524.34Y51.567
X527.957Y12.977
X528.543Y58.72
X528.543Y15.857
X535.577Y12.977
T3
G00X472.07Y77.64
M15
G01X472.07Y78.14
M16
G05
G00X472.07Y74.64
M15
G01X472.07Y75.14
M16
G05
G00X472.07Y70.64
M15
G01X472.07Y71.14
M16
G05
G00X476.27Y69.14
M15
G01X476.27Y69.64
M16
G05
T0
M30
