G04 #@! TF.GenerationSoftware,KiCad,Pcbnew,7.0.8*
G04 #@! TF.CreationDate,2023-10-21T06:46:12+09:00*
G04 #@! TF.ProjectId,ckb9,636b6239-2e6b-4696-9361-645f70636258,rev?*
G04 #@! TF.SameCoordinates,Original*
G04 #@! TF.FileFunction,Profile,NP*
%FSLAX46Y46*%
G04 Gerber Fmt 4.6, Leading zero omitted, Abs format (unit mm)*
G04 Created by KiCad (PCBNEW 7.0.8) date 2023-10-21 06:46:12*
%MOMM*%
%LPD*%
G01*
G04 APERTURE LIST*
G04 #@! TA.AperFunction,Profile*
%ADD10C,0.150000*%
G04 #@! TD*
G04 APERTURE END LIST*
D10*
X534260002Y15340000D02*
G75*
G03*
X535260000Y14329952I999998J-10000D01*
G01*
X534259998Y32370000D02*
G75*
G03*
X533260000Y33380048I-999998J10000D01*
G01*
X543779950Y13319953D02*
G75*
G03*
X542780000Y14330000I-999950J10047D01*
G01*
X542770000Y-4719998D02*
G75*
G03*
X543780048Y-3720000I10000J999998D01*
G01*
X535260000Y-4720002D02*
G75*
G03*
X534249952Y-5720000I-10000J-999998D01*
G01*
X416150000Y79629998D02*
G75*
G03*
X415139952Y78630000I-10000J-999998D01*
G01*
X415140002Y-24880000D02*
G75*
G03*
X416140000Y-25890048I999998J-10000D01*
G01*
X478480000Y79630000D02*
X534260000Y79630000D01*
X529500000Y52420000D02*
X529500000Y34390048D01*
X416140000Y-25890048D02*
X534250000Y-25890000D01*
X534260000Y32370000D02*
X534260000Y15340000D01*
X529500050Y34390047D02*
G75*
G03*
X530500000Y33380000I999950J-10047D01*
G01*
X415139952Y78630000D02*
X415140000Y-24880000D01*
X534260000Y57180000D02*
X529500000Y52420000D01*
X469860000Y79630000D02*
X416150000Y79630000D01*
X471270000Y81040000D02*
X469860000Y79630000D01*
X543780000Y13319952D02*
X543780048Y-3720000D01*
X542770000Y-4720000D02*
X535260000Y-4720000D01*
X477070000Y81040000D02*
X471270000Y81040000D01*
X534260000Y79630000D02*
X534260000Y57180000D01*
X534249952Y-5720000D02*
X534250000Y-25890000D01*
X477070000Y81040000D02*
X478480000Y79630000D01*
X530500000Y33380000D02*
X533260000Y33380048D01*
X535260000Y14329952D02*
X542780000Y14330000D01*
M02*
