M48
; DRILL file {KiCad 7.0.8} date 2023 October 21, Saturday 06:46:15
; FORMAT={-:-/ absolute / metric / decimal}
; #@! TF.CreationDate,2023-10-21T06:46:15+09:00
; #@! TF.GenerationSoftware,Kicad,Pcbnew,7.0.8
; #@! TF.FileFunction,NonPlated,1,2,NPTH
FMAT,2
METRIC
; #@! TA.AperFunction,NonPlated,NPTH,ComponentDrill
T1C1.200
; #@! TA.AperFunction,NonPlated,NPTH,ComponentDrill
T2C1.900
; #@! TA.AperFunction,NonPlated,NPTH,ComponentDrill
T3C3.000
; #@! TA.AperFunction,NonPlated,NPTH,ComponentDrill
T4C4.100
%
G90
G05
T1
X474.17Y79.69
X474.17Y72.69
T2
X419.64Y66.72
X419.64Y42.907
X422.021Y23.857
X422.021Y-14.242
X426.784Y4.808
X429.8Y66.72
X429.8Y42.907
X432.181Y23.857
X432.181Y-14.242
X436.944Y4.808
X438.69Y66.72
X438.69Y42.907
X443.452Y23.857
X443.452Y-14.242
X448.85Y66.72
X448.85Y42.907
X452.977Y4.808
X453.612Y23.857
X453.612Y-14.242
X457.74Y66.72
X457.74Y42.907
X462.502Y23.857
X463.137Y4.808
X464.87Y-14.22
X467.9Y66.72
X467.9Y42.907
X472.027Y4.808
X472.662Y23.857
X475.03Y-14.22
X476.79Y42.907
X481.552Y66.72
X481.552Y23.857
X482.188Y4.808
X486.33Y-14.25
X486.95Y42.907
X491.077Y4.808
X491.712Y66.72
X491.712Y23.857
X495.84Y42.907
X496.49Y-14.25
X500.602Y66.72
X500.602Y23.857
X501.237Y4.808
X506.0Y42.907
X510.127Y4.808
X510.762Y66.72
X510.762Y23.857
X512.509Y-14.242
X514.89Y42.907
X519.653Y66.72
X519.653Y23.857
X520.288Y4.808
X522.669Y-14.242
X525.05Y42.907
X529.178Y4.808
X529.812Y66.72
X529.812Y23.857
X539.337Y4.808
T3
X420.91Y69.26
X420.91Y45.447
X423.291Y26.397
X423.291Y-11.702
X427.26Y71.8
X427.26Y47.987
X428.054Y7.347
X429.641Y28.938
X429.641Y-9.162
X434.404Y9.887
X439.96Y69.26
X439.96Y45.447
X444.722Y26.397
X444.722Y-11.702
X446.31Y71.8
X446.31Y47.987
X451.072Y28.938
X451.072Y-9.162
X454.248Y7.347
X459.01Y69.26
X459.01Y45.447
X460.597Y9.887
X463.772Y26.397
X465.36Y71.8
X465.36Y47.987
X466.14Y-11.68
X470.123Y28.938
X472.49Y-9.14
X473.297Y7.347
X478.06Y45.447
X479.647Y9.887
X482.822Y69.26
X482.822Y26.397
X484.41Y47.987
X487.6Y-11.71
X489.172Y71.8
X489.172Y28.938
X492.347Y7.347
X493.95Y-9.17
X497.11Y45.447
X498.697Y9.887
X501.873Y69.26
X501.873Y26.397
X503.46Y47.987
X508.222Y71.8
X508.222Y28.938
X511.397Y7.347
X513.779Y-11.702
X516.16Y45.447
X517.747Y9.887
X520.129Y-9.162
X520.923Y69.26
X520.923Y26.397
X522.51Y47.987
X527.272Y71.8
X527.272Y28.938
X530.447Y7.347
X536.798Y9.887
T4
X424.72Y66.72
X424.72Y42.907
X427.101Y23.857
X427.101Y-14.242
X431.864Y4.808
X443.77Y66.72
X443.77Y42.907
X448.532Y23.857
X448.532Y-14.242
X458.058Y4.808
X462.82Y66.72
X462.82Y42.907
X467.582Y23.857
X469.95Y-14.22
X477.107Y4.808
X481.87Y42.907
X486.632Y66.72
X486.632Y23.857
X491.41Y-14.25
X496.157Y4.808
X500.92Y42.907
X505.683Y66.72
X505.683Y23.857
X515.207Y4.808
X517.589Y-14.242
X519.97Y42.907
X524.732Y66.72
X524.732Y23.857
X534.257Y4.808
T0
M30
