G04 #@! TF.GenerationSoftware,KiCad,Pcbnew,7.0.8*
G04 #@! TF.CreationDate,2023-10-21T06:46:12+09:00*
G04 #@! TF.ProjectId,ckb9,636b6239-2e6b-4696-9361-645f70636258,rev?*
G04 #@! TF.SameCoordinates,Original*
G04 #@! TF.FileFunction,Legend,Top*
G04 #@! TF.FilePolarity,Positive*
%FSLAX46Y46*%
G04 Gerber Fmt 4.6, Leading zero omitted, Abs format (unit mm)*
G04 Created by KiCad (PCBNEW 7.0.8) date 2023-10-21 06:46:12*
%MOMM*%
%LPD*%
G01*
G04 APERTURE LIST*
%ADD10C,0.150000*%
%ADD11R,1.397000X1.397000*%
%ADD12C,1.397000*%
G04 APERTURE END LIST*
D10*
X422640000Y56510000D02*
X422640000Y55010000D01*
X422640000Y55010000D02*
X428040000Y55010000D01*
X424840000Y56260000D02*
X425740000Y55760000D01*
X424840000Y55260000D02*
X424840000Y56260000D01*
X425740000Y55760000D02*
X424840000Y55260000D01*
X425840000Y55260000D02*
X425840000Y56260000D01*
X428040000Y56510000D02*
X422640000Y56510000D01*
X428040000Y55010000D02*
X428040000Y56510000D01*
X498780000Y52317500D02*
X498780000Y50817500D01*
X498780000Y50817500D02*
X504180000Y50817500D01*
X500980000Y52067500D02*
X501880000Y51567500D01*
X500980000Y51067500D02*
X500980000Y52067500D01*
X501880000Y51567500D02*
X500980000Y51067500D01*
X501980000Y51067500D02*
X501980000Y52067500D01*
X504180000Y52317500D02*
X498780000Y52317500D01*
X504180000Y50817500D02*
X504180000Y52317500D01*
X479730000Y52317500D02*
X479730000Y50817500D01*
X479730000Y50817500D02*
X485130000Y50817500D01*
X481930000Y52067500D02*
X482830000Y51567500D01*
X481930000Y51067500D02*
X481930000Y52067500D01*
X482830000Y51567500D02*
X481930000Y51067500D01*
X482930000Y51067500D02*
X482930000Y52067500D01*
X485130000Y52317500D02*
X479730000Y52317500D01*
X485130000Y50817500D02*
X485130000Y52317500D01*
X460120000Y59470000D02*
X460120000Y57970000D01*
X460120000Y57970000D02*
X465520000Y57970000D01*
X462320000Y59220000D02*
X463220000Y58720000D01*
X462320000Y58220000D02*
X462320000Y59220000D01*
X463220000Y58720000D02*
X462320000Y58220000D01*
X463320000Y58220000D02*
X463320000Y59220000D01*
X465520000Y59470000D02*
X460120000Y59470000D01*
X465520000Y57970000D02*
X465520000Y59470000D01*
X522032500Y59470000D02*
X522032500Y57970000D01*
X522032500Y57970000D02*
X527432500Y57970000D01*
X524232500Y59220000D02*
X525132500Y58720000D01*
X524232500Y58220000D02*
X524232500Y59220000D01*
X525132500Y58720000D02*
X524232500Y58220000D01*
X525232500Y58220000D02*
X525232500Y59220000D01*
X527432500Y59470000D02*
X522032500Y59470000D01*
X527432500Y57970000D02*
X527432500Y59470000D01*
X441690000Y56510000D02*
X441690000Y55010000D01*
X441690000Y55010000D02*
X447090000Y55010000D01*
X443890000Y56260000D02*
X444790000Y55760000D01*
X443890000Y55260000D02*
X443890000Y56260000D01*
X444790000Y55760000D02*
X443890000Y55260000D01*
X444890000Y55260000D02*
X444890000Y56260000D01*
X447090000Y56510000D02*
X441690000Y56510000D01*
X447090000Y55010000D02*
X447090000Y56510000D01*
X502982500Y59470000D02*
X502982500Y57970000D01*
X502982500Y57970000D02*
X508382500Y57970000D01*
X505182500Y59220000D02*
X506082500Y58720000D01*
X505182500Y58220000D02*
X505182500Y59220000D01*
X506082500Y58720000D02*
X505182500Y58220000D01*
X506182500Y58220000D02*
X506182500Y59220000D01*
X508382500Y59470000D02*
X502982500Y59470000D01*
X508382500Y57970000D02*
X508382500Y59470000D01*
X517830000Y52317500D02*
X517830000Y50817500D01*
X517830000Y50817500D02*
X523230000Y50817500D01*
X520030000Y52067500D02*
X520930000Y51567500D01*
X520030000Y51067500D02*
X520030000Y52067500D01*
X520930000Y51567500D02*
X520030000Y51067500D01*
X521030000Y51067500D02*
X521030000Y52067500D01*
X523230000Y52317500D02*
X517830000Y52317500D01*
X523230000Y50817500D02*
X523230000Y52317500D01*
X514889000Y-21492500D02*
X514889000Y-22992500D01*
X514889000Y-22992500D02*
X520289000Y-22992500D01*
X517089000Y-21742500D02*
X517989000Y-22242500D01*
X517089000Y-22742500D02*
X517089000Y-21742500D01*
X517989000Y-22242500D02*
X517089000Y-22742500D01*
X518089000Y-22742500D02*
X518089000Y-21742500D01*
X520289000Y-21492500D02*
X514889000Y-21492500D01*
X520289000Y-22992500D02*
X520289000Y-21492500D01*
X464882500Y16607500D02*
X464882500Y15107500D01*
X464882500Y15107500D02*
X470282500Y15107500D01*
X467082500Y16357500D02*
X467982500Y15857500D01*
X467082500Y15357500D02*
X467082500Y16357500D01*
X467982500Y15857500D02*
X467082500Y15357500D01*
X468082500Y15357500D02*
X468082500Y16357500D01*
X470282500Y16607500D02*
X464882500Y16607500D01*
X470282500Y15107500D02*
X470282500Y16607500D01*
X483932500Y16607500D02*
X483932500Y15107500D01*
X483932500Y15107500D02*
X489332500Y15107500D01*
X486132500Y16357500D02*
X487032500Y15857500D01*
X486132500Y15357500D02*
X486132500Y16357500D01*
X487032500Y15857500D02*
X486132500Y15357500D01*
X487132500Y15357500D02*
X487132500Y16357500D01*
X489332500Y16607500D02*
X483932500Y16607500D01*
X489332500Y15107500D02*
X489332500Y16607500D01*
X502982500Y16607500D02*
X502982500Y15107500D01*
X502982500Y15107500D02*
X508382500Y15107500D01*
X505182500Y16357500D02*
X506082500Y15857500D01*
X505182500Y15357500D02*
X505182500Y16357500D01*
X506082500Y15857500D02*
X505182500Y15357500D01*
X506182500Y15357500D02*
X506182500Y16357500D01*
X508382500Y16607500D02*
X502982500Y16607500D01*
X508382500Y15107500D02*
X508382500Y16607500D01*
X522032500Y16607500D02*
X522032500Y15107500D01*
X522032500Y15107500D02*
X527432500Y15107500D01*
X524232500Y16357500D02*
X525132500Y15857500D01*
X524232500Y15357500D02*
X524232500Y16357500D01*
X525132500Y15857500D02*
X524232500Y15357500D01*
X525232500Y15357500D02*
X525232500Y16357500D01*
X527432500Y16607500D02*
X522032500Y16607500D01*
X527432500Y15107500D02*
X527432500Y16607500D01*
X452867500Y13727500D02*
X452867500Y12227500D01*
X452867500Y12227500D02*
X458267500Y12227500D01*
X455067500Y13477500D02*
X455967500Y12977500D01*
X455067500Y12477500D02*
X455067500Y13477500D01*
X455967500Y12977500D02*
X455067500Y12477500D01*
X456067500Y12477500D02*
X456067500Y13477500D01*
X458267500Y13727500D02*
X452867500Y13727500D01*
X458267500Y12227500D02*
X458267500Y13727500D01*
X471917500Y13727500D02*
X471917500Y12227500D01*
X471917500Y12227500D02*
X477317500Y12227500D01*
X474117500Y13477500D02*
X475017500Y12977500D01*
X474117500Y12477500D02*
X474117500Y13477500D01*
X475017500Y12977500D02*
X474117500Y12477500D01*
X475117500Y12477500D02*
X475117500Y13477500D01*
X477317500Y13727500D02*
X471917500Y13727500D01*
X477317500Y12227500D02*
X477317500Y13727500D01*
X490967500Y13727500D02*
X490967500Y12227500D01*
X490967500Y12227500D02*
X496367500Y12227500D01*
X493167500Y13477500D02*
X494067500Y12977500D01*
X493167500Y12477500D02*
X493167500Y13477500D01*
X494067500Y12977500D02*
X493167500Y12477500D01*
X494167500Y12477500D02*
X494167500Y13477500D01*
X496367500Y13727500D02*
X490967500Y13727500D01*
X496367500Y12227500D02*
X496367500Y13727500D01*
X505200000Y13800000D02*
X505200000Y12300000D01*
X505200000Y12300000D02*
X510600000Y12300000D01*
X507400000Y13550000D02*
X508300000Y13050000D01*
X507400000Y12550000D02*
X507400000Y13550000D01*
X508300000Y13050000D02*
X507400000Y12550000D01*
X508400000Y12550000D02*
X508400000Y13550000D01*
X510600000Y13800000D02*
X505200000Y13800000D01*
X510600000Y12300000D02*
X510600000Y13800000D01*
X529067500Y13727500D02*
X529067500Y12227500D01*
X529067500Y12227500D02*
X534467500Y12227500D01*
X531267500Y13477500D02*
X532167500Y12977500D01*
X531267500Y12477500D02*
X531267500Y13477500D01*
X532167500Y12977500D02*
X531267500Y12477500D01*
X532267500Y12477500D02*
X532267500Y13477500D01*
X534467500Y13727500D02*
X529067500Y13727500D01*
X534467500Y12227500D02*
X534467500Y13727500D01*
X445832500Y-21492500D02*
X445832500Y-22992500D01*
X445832500Y-22992500D02*
X451232500Y-22992500D01*
X448032500Y-21742500D02*
X448932500Y-22242500D01*
X448032500Y-22742500D02*
X448032500Y-21742500D01*
X448932500Y-22242500D02*
X448032500Y-22742500D01*
X449032500Y-22742500D02*
X449032500Y-21742500D01*
X451232500Y-21492500D02*
X445832500Y-21492500D01*
X451232500Y-22992500D02*
X451232500Y-21492500D01*
X424401000Y16607500D02*
X424401000Y15107500D01*
X424401000Y15107500D02*
X429801000Y15107500D01*
X426601000Y16357500D02*
X427501000Y15857500D01*
X426601000Y15357500D02*
X426601000Y16357500D01*
X427501000Y15857500D02*
X426601000Y15357500D01*
X427601000Y15357500D02*
X427601000Y16357500D01*
X429801000Y16607500D02*
X424401000Y16607500D01*
X429801000Y15107500D02*
X429801000Y16607500D01*
X424401000Y-21492500D02*
X424401000Y-22992500D01*
X424401000Y-22992500D02*
X429801000Y-22992500D01*
X426601000Y-21742500D02*
X427501000Y-22242500D01*
X426601000Y-22742500D02*
X426601000Y-21742500D01*
X427501000Y-22242500D02*
X426601000Y-22742500D01*
X427601000Y-22742500D02*
X427601000Y-21742500D01*
X429801000Y-21492500D02*
X424401000Y-21492500D01*
X429801000Y-22992500D02*
X429801000Y-21492500D01*
X424360000Y13730000D02*
X424360000Y12230000D01*
X424360000Y12230000D02*
X429760000Y12230000D01*
X426560000Y13480000D02*
X427460000Y12980000D01*
X426560000Y12480000D02*
X426560000Y13480000D01*
X427460000Y12980000D02*
X426560000Y12480000D01*
X427560000Y12480000D02*
X427560000Y13480000D01*
X429760000Y13730000D02*
X424360000Y13730000D01*
X429760000Y12230000D02*
X429760000Y13730000D01*
X460680000Y52317500D02*
X460680000Y50817500D01*
X460680000Y50817500D02*
X466080000Y50817500D01*
X462880000Y52067500D02*
X463780000Y51567500D01*
X462880000Y51067500D02*
X462880000Y52067500D01*
X463780000Y51567500D02*
X462880000Y51067500D01*
X463880000Y51067500D02*
X463880000Y52067500D01*
X466080000Y52317500D02*
X460680000Y52317500D01*
X466080000Y50817500D02*
X466080000Y52317500D01*
X445832500Y16607500D02*
X445832500Y15107500D01*
X445832500Y15107500D02*
X451232500Y15107500D01*
X448032500Y16357500D02*
X448932500Y15857500D01*
X448032500Y15357500D02*
X448032500Y16357500D01*
X448932500Y15857500D02*
X448032500Y15357500D01*
X449032500Y15357500D02*
X449032500Y16357500D01*
X451232500Y16607500D02*
X445832500Y16607500D01*
X451232500Y15107500D02*
X451232500Y16607500D01*
X422580000Y52317500D02*
X422580000Y50817500D01*
X422580000Y50817500D02*
X427980000Y50817500D01*
X424780000Y52067500D02*
X425680000Y51567500D01*
X424780000Y51067500D02*
X424780000Y52067500D01*
X425680000Y51567500D02*
X424780000Y51067500D01*
X425780000Y51067500D02*
X425780000Y52067500D01*
X427980000Y52317500D02*
X422580000Y52317500D01*
X427980000Y50817500D02*
X427980000Y52317500D01*
X441630000Y52317500D02*
X441630000Y50817500D01*
X441630000Y50817500D02*
X447030000Y50817500D01*
X443830000Y52067500D02*
X444730000Y51567500D01*
X443830000Y51067500D02*
X443830000Y52067500D01*
X444730000Y51567500D02*
X443830000Y51067500D01*
X444830000Y51067500D02*
X444830000Y52067500D01*
X447030000Y52317500D02*
X441630000Y52317500D01*
X447030000Y50817500D02*
X447030000Y52317500D01*
X483932500Y59470000D02*
X483932500Y57970000D01*
X483932500Y57970000D02*
X489332500Y57970000D01*
X486132500Y59220000D02*
X487032500Y58720000D01*
X486132500Y58220000D02*
X486132500Y59220000D01*
X487032500Y58720000D02*
X486132500Y58220000D01*
X487132500Y58220000D02*
X487132500Y59220000D01*
X489332500Y59470000D02*
X483932500Y59470000D01*
X489332500Y57970000D02*
X489332500Y59470000D01*
X488910000Y-21540000D02*
X488910000Y-23040000D01*
X488910000Y-23040000D02*
X494310000Y-23040000D01*
X491110000Y-21790000D02*
X492010000Y-22290000D01*
X491110000Y-22790000D02*
X491110000Y-21790000D01*
X492010000Y-22290000D02*
X491110000Y-22790000D01*
X492110000Y-22790000D02*
X492110000Y-21790000D01*
X494310000Y-21540000D02*
X488910000Y-21540000D01*
X494310000Y-23040000D02*
X494310000Y-21540000D01*
X467000000Y-21540000D02*
X467000000Y-23040000D01*
X467000000Y-23040000D02*
X472400000Y-23040000D01*
X469200000Y-21790000D02*
X470100000Y-22290000D01*
X469200000Y-22790000D02*
X469200000Y-21790000D01*
X470100000Y-22290000D02*
X469200000Y-22790000D01*
X470200000Y-22790000D02*
X470200000Y-21790000D01*
X472400000Y-21540000D02*
X467000000Y-21540000D01*
X472400000Y-23040000D02*
X472400000Y-21540000D01*
D11*
X421530000Y55760000D03*
D12*
X429150000Y55760000D03*
D11*
X497670000Y51567500D03*
D12*
X505290000Y51567500D03*
D11*
X478620000Y51567500D03*
D12*
X486240000Y51567500D03*
D11*
X459010000Y58720000D03*
D12*
X466630000Y58720000D03*
D11*
X520922500Y58720000D03*
D12*
X528542500Y58720000D03*
D11*
X440580000Y55760000D03*
D12*
X448200000Y55760000D03*
D11*
X501872500Y58720000D03*
D12*
X509492500Y58720000D03*
D11*
X516720000Y51567500D03*
D12*
X524340000Y51567500D03*
D11*
X513779000Y-22242500D03*
D12*
X521399000Y-22242500D03*
D11*
X463772500Y15857500D03*
D12*
X471392500Y15857500D03*
D11*
X482822500Y15857500D03*
D12*
X490442500Y15857500D03*
D11*
X501872500Y15857500D03*
D12*
X509492500Y15857500D03*
D11*
X520922500Y15857500D03*
D12*
X528542500Y15857500D03*
D11*
X451757500Y12977500D03*
D12*
X459377500Y12977500D03*
D11*
X470807500Y12977500D03*
D12*
X478427500Y12977500D03*
D11*
X489857500Y12977500D03*
D12*
X497477500Y12977500D03*
D11*
X504090000Y13050000D03*
D12*
X511710000Y13050000D03*
D11*
X527957500Y12977500D03*
D12*
X535577500Y12977500D03*
D11*
X444722500Y-22242500D03*
D12*
X452342500Y-22242500D03*
D11*
X423291000Y15857500D03*
D12*
X430911000Y15857500D03*
D11*
X423291000Y-22242500D03*
D12*
X430911000Y-22242500D03*
D11*
X423250000Y12980000D03*
D12*
X430870000Y12980000D03*
D11*
X459570000Y51567500D03*
D12*
X467190000Y51567500D03*
D11*
X444722500Y15857500D03*
D12*
X452342500Y15857500D03*
D11*
X421470000Y51567500D03*
D12*
X429090000Y51567500D03*
D11*
X440520000Y51567500D03*
D12*
X448140000Y51567500D03*
D11*
X482822500Y58720000D03*
D12*
X490442500Y58720000D03*
D11*
X487800000Y-22290000D03*
D12*
X495420000Y-22290000D03*
D11*
X465890000Y-22290000D03*
D12*
X473510000Y-22290000D03*
M02*
