G04 #@! TF.GenerationSoftware,KiCad,Pcbnew,7.0.8*
G04 #@! TF.CreationDate,2023-10-21T06:46:12+09:00*
G04 #@! TF.ProjectId,ckb9,636b6239-2e6b-4696-9361-645f70636258,rev?*
G04 #@! TF.SameCoordinates,Original*
G04 #@! TF.FileFunction,Copper,L2,Bot*
G04 #@! TF.FilePolarity,Positive*
%FSLAX46Y46*%
G04 Gerber Fmt 4.6, Leading zero omitted, Abs format (unit mm)*
G04 Created by KiCad (PCBNEW 7.0.8) date 2023-10-21 06:46:12*
%MOMM*%
%LPD*%
G01*
G04 APERTURE LIST*
G04 #@! TA.AperFunction,ComponentPad*
%ADD10R,1.397000X1.397000*%
G04 #@! TD*
G04 #@! TA.AperFunction,SMDPad,CuDef*
%ADD11R,1.300000X0.950000*%
G04 #@! TD*
G04 #@! TA.AperFunction,ComponentPad*
%ADD12C,1.397000*%
G04 #@! TD*
G04 #@! TA.AperFunction,SMDPad,CuDef*
%ADD13R,2.550000X2.500000*%
G04 #@! TD*
G04 #@! TA.AperFunction,SMDPad,CuDef*
%ADD14R,1.524000X1.524000*%
G04 #@! TD*
G04 #@! TA.AperFunction,ComponentPad*
%ADD15O,1.700000X2.500000*%
G04 #@! TD*
G04 #@! TA.AperFunction,ComponentPad*
%ADD16C,1.524000*%
G04 #@! TD*
G04 #@! TA.AperFunction,ViaPad*
%ADD17C,0.800000*%
G04 #@! TD*
G04 #@! TA.AperFunction,Conductor*
%ADD18C,0.250000*%
G04 #@! TD*
G04 APERTURE END LIST*
D10*
X421530000Y55760000D03*
D11*
X423565000Y55760000D03*
X427115000Y55760000D03*
D12*
X429150000Y55760000D03*
D10*
X497670000Y51567500D03*
D11*
X499705000Y51567500D03*
X503255000Y51567500D03*
D12*
X505290000Y51567500D03*
D10*
X478620000Y51567500D03*
D11*
X480655000Y51567500D03*
X484205000Y51567500D03*
D12*
X486240000Y51567500D03*
D10*
X459010000Y58720000D03*
D11*
X461045000Y58720000D03*
X464595000Y58720000D03*
D12*
X466630000Y58720000D03*
D10*
X520922500Y58720000D03*
D11*
X522957500Y58720000D03*
X526507500Y58720000D03*
D12*
X528542500Y58720000D03*
D10*
X440580000Y55760000D03*
D11*
X442615000Y55760000D03*
X446165000Y55760000D03*
D12*
X448200000Y55760000D03*
D10*
X501872500Y58720000D03*
D11*
X503907500Y58720000D03*
X507457500Y58720000D03*
D12*
X509492500Y58720000D03*
D10*
X516720000Y51567500D03*
D11*
X518755000Y51567500D03*
X522305000Y51567500D03*
D12*
X524340000Y51567500D03*
D10*
X513779000Y-22242500D03*
D11*
X515814000Y-22242500D03*
X519364000Y-22242500D03*
D12*
X521399000Y-22242500D03*
D13*
X417635000Y69260000D03*
X430562000Y71800000D03*
X436685000Y69260000D03*
X449612000Y71800000D03*
X455735000Y69260000D03*
X468662000Y71800000D03*
X479547500Y69260000D03*
X492474500Y71800000D03*
X498597500Y69260000D03*
X511524500Y71800000D03*
X517647500Y69260000D03*
X530574500Y71800000D03*
X417635000Y45447500D03*
X430562000Y47987500D03*
X436685000Y45447500D03*
X449612000Y47987500D03*
X455735000Y45447500D03*
X468662000Y47987500D03*
X474785000Y45447500D03*
X487712000Y47987500D03*
D10*
X463772500Y15857500D03*
D11*
X465807500Y15857500D03*
X469357500Y15857500D03*
D12*
X471392500Y15857500D03*
D10*
X482822500Y15857500D03*
D11*
X484857500Y15857500D03*
X488407500Y15857500D03*
D12*
X490442500Y15857500D03*
D10*
X501872500Y15857500D03*
D11*
X503907500Y15857500D03*
X507457500Y15857500D03*
D12*
X509492500Y15857500D03*
D10*
X520922500Y15857500D03*
D11*
X522957500Y15857500D03*
X526507500Y15857500D03*
D12*
X528542500Y15857500D03*
D10*
X451757500Y12977500D03*
D11*
X453792500Y12977500D03*
X457342500Y12977500D03*
D12*
X459377500Y12977500D03*
D10*
X470807500Y12977500D03*
D11*
X472842500Y12977500D03*
X476392500Y12977500D03*
D12*
X478427500Y12977500D03*
D10*
X489857500Y12977500D03*
D11*
X491892500Y12977500D03*
X495442500Y12977500D03*
D12*
X497477500Y12977500D03*
D10*
X504090000Y13050000D03*
D11*
X506125000Y13050000D03*
X509675000Y13050000D03*
D12*
X511710000Y13050000D03*
D10*
X527957500Y12977500D03*
D11*
X529992500Y12977500D03*
X533542500Y12977500D03*
D12*
X535577500Y12977500D03*
D10*
X444722500Y-22242500D03*
D11*
X446757500Y-22242500D03*
X450307500Y-22242500D03*
D12*
X452342500Y-22242500D03*
D10*
X423291000Y15857500D03*
D11*
X425326000Y15857500D03*
X428876000Y15857500D03*
D12*
X430911000Y15857500D03*
D10*
X423291000Y-22242500D03*
D11*
X425326000Y-22242500D03*
X428876000Y-22242500D03*
D12*
X430911000Y-22242500D03*
D10*
X423250000Y12980000D03*
D11*
X425285000Y12980000D03*
X428835000Y12980000D03*
D12*
X430870000Y12980000D03*
D10*
X459570000Y51567500D03*
D11*
X461605000Y51567500D03*
X465155000Y51567500D03*
D12*
X467190000Y51567500D03*
D10*
X444722500Y15857500D03*
D11*
X446757500Y15857500D03*
X450307500Y15857500D03*
D12*
X452342500Y15857500D03*
D10*
X421470000Y51567500D03*
D11*
X423505000Y51567500D03*
X427055000Y51567500D03*
D12*
X429090000Y51567500D03*
D10*
X440520000Y51567500D03*
D11*
X442555000Y51567500D03*
X446105000Y51567500D03*
D12*
X448140000Y51567500D03*
D10*
X482822500Y58720000D03*
D11*
X484857500Y58720000D03*
X488407500Y58720000D03*
D12*
X490442500Y58720000D03*
D13*
X493835000Y45447500D03*
X506762000Y47987500D03*
X512885000Y45447500D03*
X525812000Y47987500D03*
X441447500Y26397500D03*
X454374500Y28937500D03*
X460497500Y26397500D03*
X473424500Y28937500D03*
X479547500Y26397500D03*
X492474500Y28937500D03*
X498597500Y26397500D03*
X511524500Y28937500D03*
X517647500Y26397500D03*
X530574500Y28937500D03*
X450972500Y7347500D03*
X463899500Y9887500D03*
X470022500Y7347500D03*
X482949500Y9887500D03*
X489072500Y7347500D03*
X501999500Y9887500D03*
X508122500Y7347500D03*
X521049500Y9887500D03*
X527172500Y7347500D03*
X540099500Y9887500D03*
X441447500Y-11702500D03*
X454374500Y-9162500D03*
X420016000Y26397500D03*
X432943000Y28937500D03*
X420016000Y-11702500D03*
X432943000Y-9162500D03*
X424779000Y7347500D03*
X437706000Y9887500D03*
X510504000Y-11702500D03*
X523431000Y-9162500D03*
D10*
X487800000Y-22290000D03*
D11*
X489835000Y-22290000D03*
X493385000Y-22290000D03*
D12*
X495420000Y-22290000D03*
D10*
X465890000Y-22290000D03*
D11*
X467925000Y-22290000D03*
X471475000Y-22290000D03*
D12*
X473510000Y-22290000D03*
D13*
X462865000Y-11680000D03*
X475792000Y-9140000D03*
X484325000Y-11710000D03*
X497252000Y-9170000D03*
D14*
X529520000Y-4970000D03*
X529520000Y-2430000D03*
X529520000Y110000D03*
D15*
X476270000Y69390000D03*
X472070000Y77890000D03*
X472070000Y74890000D03*
X472070000Y70890000D03*
D16*
X418690000Y59270000D03*
X421230000Y59270000D03*
X423770000Y59270000D03*
X426310000Y59270000D03*
X428850000Y59270000D03*
X431390000Y59270000D03*
X433930000Y59270000D03*
X436470000Y59270000D03*
X439010000Y59270000D03*
X439010000Y74510000D03*
X436470000Y74510000D03*
X433930000Y74510000D03*
X431390000Y74510000D03*
X428850000Y74510000D03*
X426310000Y74510000D03*
X423770000Y74510000D03*
X421230000Y74510000D03*
X418690000Y74510000D03*
D17*
X453310001Y55620000D03*
X451860000Y55560000D03*
X451800000Y51570000D03*
X454560000Y63540000D03*
X441530000Y53755010D03*
X514620000Y55280000D03*
X455800000Y18800000D03*
X451010000Y63540000D03*
X439670000Y53470000D03*
X474785000Y38425000D03*
X493835000Y52815000D03*
X434420000Y38470000D03*
X519560000Y-4580000D03*
X455735000Y36835000D03*
X433700000Y36780000D03*
X417640000Y-2080000D03*
X526000000Y-5010000D03*
X519710000Y-2410000D03*
X455372280Y55704035D03*
X460843501Y-23313501D03*
X442370000Y-2410000D03*
X454380000Y55580000D03*
D18*
X530413620Y-6060000D02*
X521040000Y-6060000D01*
X529520000Y110000D02*
X530607000Y-977000D01*
X521040000Y-6060000D02*
X519560000Y-4580000D01*
X530607000Y-5866620D02*
X530413620Y-6060000D01*
X530607000Y-977000D02*
X530607000Y-5866620D01*
X434100000Y19046500D02*
X430911000Y15857500D01*
X434100000Y24840000D02*
X434100000Y19046500D01*
X432943000Y25997000D02*
X434100000Y24840000D01*
X432943000Y28937500D02*
X432943000Y25997000D01*
X430911000Y15857500D02*
X428876000Y15857500D01*
X430911000Y-22242500D02*
X428876000Y-22242500D01*
X434490000Y-18663500D02*
X430911000Y-22242500D01*
X432943000Y-9162500D02*
X432943000Y-12023000D01*
X432943000Y-12023000D02*
X434490000Y-13570000D01*
X434490000Y-13570000D02*
X434490000Y-18663500D01*
X477200000Y-18600000D02*
X473510000Y-22290000D01*
X477200000Y-13420000D02*
X477200000Y-18600000D01*
X473510000Y-22290000D02*
X471475000Y-22290000D01*
X475792000Y-12012000D02*
X477200000Y-13420000D01*
X475792000Y-9140000D02*
X475792000Y-12012000D01*
X431440000Y12410000D02*
X430870000Y12980000D01*
X437706000Y9887500D02*
X437706000Y11484000D01*
X436780000Y12410000D02*
X431440000Y12410000D01*
X437706000Y11484000D02*
X436780000Y12410000D01*
X430870000Y12980000D02*
X428835000Y12980000D01*
X524840000Y-18801500D02*
X521399000Y-22242500D01*
X524840000Y-13300000D02*
X524840000Y-18801500D01*
X520107500Y-22242500D02*
X519364000Y-22242500D01*
X523431000Y-9162500D02*
X523431000Y-11891000D01*
X521399000Y-22242500D02*
X520107500Y-22242500D01*
X523431000Y-11891000D02*
X524840000Y-13300000D01*
X429150000Y55760000D02*
X427115000Y55760000D01*
X427940000Y63720000D02*
X427940000Y67550000D01*
X450610000Y67680000D02*
X450610000Y64974999D01*
X450610000Y64974999D02*
X450125001Y64490000D01*
X449612000Y68678000D02*
X450610000Y67680000D01*
X450125001Y57685001D02*
X448200000Y55760000D01*
X449612000Y71800000D02*
X449612000Y68678000D01*
X450125001Y64490000D02*
X450125001Y57685001D01*
X448200000Y55760000D02*
X446165000Y55760000D01*
X468710000Y68690000D02*
X468710000Y68470000D01*
X468662000Y71800000D02*
X468662000Y68690000D01*
X466630000Y58720000D02*
X464595000Y58720000D01*
X469970000Y62060000D02*
X466630000Y58720000D01*
X469970000Y67210000D02*
X469970000Y62060000D01*
X468662000Y68690000D02*
X468710000Y68690000D01*
X468710000Y68470000D02*
X469970000Y67210000D01*
X490442500Y58720000D02*
X493780000Y62057500D01*
X493780000Y67280000D02*
X492474500Y68585500D01*
X490442500Y58720000D02*
X488407500Y58720000D01*
X492474500Y68585500D02*
X492474500Y71800000D01*
X493780000Y62057500D02*
X493780000Y67280000D01*
X512580000Y67420000D02*
X512580000Y61807500D01*
X511524500Y68475500D02*
X512580000Y67420000D01*
X509492500Y58720000D02*
X507457500Y58720000D01*
X512580000Y61807500D02*
X509492500Y58720000D01*
X511524500Y71800000D02*
X511524500Y68475500D01*
X528542500Y58720000D02*
X526507500Y58720000D01*
X530574500Y68515500D02*
X531840000Y67250000D01*
X530574500Y71800000D02*
X530574500Y68515500D01*
X531840000Y67250000D02*
X531840000Y62017500D01*
X531840000Y62017500D02*
X528542500Y58720000D01*
X430562000Y47987500D02*
X430562000Y50095500D01*
X430562000Y50095500D02*
X429090000Y51567500D01*
X429090000Y51567500D02*
X427055000Y51567500D01*
X446105000Y51567500D02*
X448140000Y51567500D01*
X449612000Y50095500D02*
X448140000Y51567500D01*
X449612000Y47987500D02*
X449612000Y50095500D01*
X467190000Y51567500D02*
X465155000Y51567500D01*
X468662000Y47987500D02*
X468662000Y50095500D01*
X468662000Y50095500D02*
X467190000Y51567500D01*
X486240000Y51567500D02*
X484205000Y51567500D01*
X487712000Y50095500D02*
X486240000Y51567500D01*
X487712000Y47987500D02*
X487712000Y50095500D01*
X505290000Y51567500D02*
X503255000Y51567500D01*
X506762000Y50095500D02*
X505290000Y51567500D01*
X506762000Y47987500D02*
X506762000Y50095500D01*
X524340000Y51567500D02*
X522305000Y51567500D01*
X525812000Y50095500D02*
X524340000Y51567500D01*
X525812000Y47987500D02*
X525812000Y50095500D01*
X454374500Y26255500D02*
X455670000Y24960000D01*
X454374500Y28937500D02*
X454374500Y26255500D01*
X454887501Y18402501D02*
X452342500Y15857500D01*
X455670000Y24960000D02*
X455670000Y21272499D01*
X452342500Y15857500D02*
X450307500Y15857500D01*
X455670000Y21272499D02*
X454887501Y20490000D01*
X454887501Y20490000D02*
X454887501Y18402501D01*
X471392500Y15857500D02*
X469357500Y15857500D01*
X474840000Y19305000D02*
X471392500Y15857500D01*
X473424500Y28937500D02*
X473424500Y25885500D01*
X473424500Y25885500D02*
X474840000Y24470000D01*
X474840000Y24470000D02*
X474840000Y19305000D01*
X492474500Y28937500D02*
X492474500Y26135500D01*
X493920000Y19335000D02*
X490442500Y15857500D01*
X492474500Y26135500D02*
X493920000Y24690000D01*
X490442500Y15857500D02*
X488407500Y15857500D01*
X493920000Y24690000D02*
X493920000Y19335000D01*
X511524500Y26115500D02*
X511524500Y28937500D01*
X513400000Y24240000D02*
X511524500Y26115500D01*
X509492500Y15857500D02*
X507457500Y15857500D01*
X509492500Y15857500D02*
X513400000Y19765000D01*
X513400000Y19765000D02*
X513400000Y24240000D01*
X530574500Y26235500D02*
X531980000Y24830000D01*
X530574500Y28937500D02*
X530574500Y26235500D01*
X531980000Y19295000D02*
X528542500Y15857500D01*
X528542500Y15857500D02*
X526507500Y15857500D01*
X531980000Y24830000D02*
X531980000Y19295000D01*
X463899500Y11414090D02*
X463899500Y9887500D01*
X457342500Y12977500D02*
X459377500Y12977500D01*
X459377500Y12977500D02*
X462336090Y12977500D01*
X462336090Y12977500D02*
X463899500Y11414090D01*
X476392500Y12977500D02*
X478427500Y12977500D01*
X482172500Y12977500D02*
X482949500Y12200500D01*
X482949500Y12200500D02*
X482949500Y9887500D01*
X478427500Y12977500D02*
X482172500Y12977500D01*
X497477500Y12977500D02*
X501317500Y12977500D01*
X501999500Y12295500D02*
X501999500Y9887500D01*
X501317500Y12977500D02*
X501999500Y12295500D01*
X495442500Y12977500D02*
X497477500Y12977500D01*
X521049500Y11560500D02*
X521049500Y9887500D01*
X520440000Y12170000D02*
X521049500Y11560500D01*
X512590000Y12170000D02*
X520440000Y12170000D01*
X511710000Y13050000D02*
X512590000Y12170000D01*
X509675000Y13050000D02*
X511710000Y13050000D01*
X539372500Y12977500D02*
X540099500Y12250500D01*
X540099500Y12250500D02*
X540099500Y9887500D01*
X535577500Y12977500D02*
X539372500Y12977500D01*
X535577500Y12977500D02*
X533542500Y12977500D01*
X454374500Y-9162500D02*
X454374500Y-12074500D01*
X454374500Y-12074500D02*
X455840000Y-13540000D01*
X455840000Y-18745000D02*
X452342500Y-22242500D01*
X452342500Y-22242500D02*
X450307500Y-22242500D01*
X455840000Y-13540000D02*
X455840000Y-18745000D01*
X495420000Y-22290000D02*
X493385000Y-22290000D01*
X497252000Y-12082000D02*
X498860000Y-13690000D01*
X498860000Y-18850000D02*
X495420000Y-22290000D01*
X498860000Y-13690000D02*
X498860000Y-18850000D01*
X497252000Y-9170000D02*
X497252000Y-12082000D01*
X503907500Y15857500D02*
X501872500Y15857500D01*
X456520000Y30040000D02*
X456520000Y20180000D01*
X446757500Y15857500D02*
X444722500Y15857500D01*
X453310001Y49360001D02*
X452290000Y48340000D01*
X452290000Y48340000D02*
X452290000Y34270000D01*
X522957500Y15857500D02*
X520922500Y15857500D01*
X456520000Y20180000D02*
X456520000Y19880000D01*
X465807500Y15857500D02*
X463772500Y15857500D01*
X484857500Y15857500D02*
X482822500Y15857500D01*
X453310001Y55620000D02*
X453310001Y49360001D01*
X452290000Y34270000D02*
X456520000Y30040000D01*
X456520000Y19520000D02*
X456520000Y19880000D01*
X425326000Y15857500D02*
X423291000Y15857500D01*
X455800000Y18800000D02*
X456520000Y19520000D01*
X529992500Y12977500D02*
X527957500Y12977500D01*
X489857500Y12977500D02*
X491892500Y12977500D01*
X425285000Y12980000D02*
X423250000Y12980000D01*
X452740010Y34456400D02*
X456970010Y30226400D01*
X456970010Y30226400D02*
X456970010Y15980000D01*
X453760011Y54960011D02*
X453760010Y49173600D01*
X504090000Y13050000D02*
X506125000Y13050000D01*
X470807500Y12977500D02*
X472842500Y12977500D01*
X453792500Y12977500D02*
X453967510Y12977500D01*
X451757500Y12977500D02*
X453792500Y12977500D01*
X454380000Y55580000D02*
X453760011Y54960011D01*
X453760010Y49173600D02*
X452740010Y48153600D01*
X452740010Y48153600D02*
X452740010Y34456400D01*
X453967510Y12977500D02*
X456970010Y15980000D01*
X462370000Y-9100000D02*
X466471002Y-4998998D01*
X460843501Y-10116499D02*
X461860000Y-9100000D01*
X489835000Y-22290000D02*
X487800000Y-22290000D01*
X460843501Y-23313501D02*
X460843501Y-10116499D01*
X465196401Y12560009D02*
X463389991Y12560009D01*
X454210019Y48987199D02*
X454210020Y53976090D01*
X466200010Y11556400D02*
X465196401Y12560009D01*
X453190020Y47967200D02*
X454210019Y48987199D01*
X466471002Y-3868000D02*
X466200010Y-3597008D01*
X463389991Y12560009D02*
X457420020Y18529980D01*
X453190020Y34642800D02*
X453190020Y47967200D01*
X457420020Y18529980D02*
X457420020Y30412800D01*
X423565000Y55760000D02*
X421530000Y55760000D01*
X442615000Y55760000D02*
X440580000Y55760000D01*
X522957500Y58720000D02*
X520922500Y58720000D01*
X461045000Y58720000D02*
X459010000Y58720000D01*
X484857500Y58720000D02*
X482822500Y58720000D01*
X501872500Y58720000D02*
X503907500Y58720000D01*
X423505000Y51567500D02*
X421470000Y51567500D01*
X451860000Y55560000D02*
X451860000Y51630000D01*
X518755000Y51567500D02*
X516720000Y51567500D01*
X499705000Y51567500D02*
X497670000Y51567500D01*
X480655000Y51567500D02*
X478620000Y51567500D01*
X459570000Y51567500D02*
X461605000Y51567500D01*
X451860000Y51630000D02*
X451800000Y51570000D01*
X442555000Y51567500D02*
X440520000Y51567500D01*
X435183590Y56900000D02*
X438179990Y53903600D01*
X474785000Y33725000D02*
X479547500Y28962500D01*
X438179990Y53903600D02*
X438179990Y50072398D01*
X474785000Y45447500D02*
X474785000Y38425000D01*
X437106992Y48999400D02*
X437106992Y48546992D01*
X437106992Y48546992D02*
X435582501Y47022501D01*
X507583910Y7347500D02*
X508122500Y7347500D01*
X439650000Y54070000D02*
X439650000Y53490000D01*
X433930000Y59270000D02*
X434691999Y58508001D01*
X501356410Y13575000D02*
X507583910Y7347500D01*
X498597500Y14947500D02*
X499970000Y13575000D01*
X498597500Y26397500D02*
X498597500Y14947500D01*
X435211999Y58508001D02*
X439650000Y54070000D01*
X493835000Y45447500D02*
X493835000Y33395000D01*
X439650000Y53490000D02*
X439670000Y53470000D01*
X498597500Y28632500D02*
X498597500Y26397500D01*
X508122500Y7347500D02*
X508122500Y-9321000D01*
X498597500Y69260000D02*
X498597500Y59537500D01*
X508122500Y-9321000D02*
X510504000Y-11702500D01*
X434691999Y58508001D02*
X435211999Y58508001D01*
X498597500Y59537500D02*
X493835000Y54775000D01*
X493835000Y52815000D02*
X493835000Y45447500D01*
X493835000Y53435000D02*
X493835000Y52815000D01*
X499970000Y13575000D02*
X501356410Y13575000D01*
X493835000Y54775000D02*
X493835000Y53435000D01*
X493835000Y33395000D02*
X498597500Y28632500D01*
X512885000Y45447500D02*
X512885000Y33795000D01*
X527172500Y10487500D02*
X527172500Y7347500D01*
X514620000Y55280000D02*
X514620000Y51430000D01*
X526450000Y11200000D02*
X526460000Y11200000D01*
X514620000Y51430000D02*
X512885000Y49695000D01*
X441526011Y53838999D02*
X441526011Y53758999D01*
X440021001Y54338999D02*
X440400000Y53960000D01*
X512885000Y33795000D02*
X517647500Y29032500D01*
X519120000Y15020000D02*
X521280000Y12860000D01*
X517647500Y69260000D02*
X517647500Y59752500D01*
X517647500Y18082500D02*
X519120000Y16610000D01*
X512885000Y49695000D02*
X512885000Y45447500D01*
X526450000Y11200000D02*
X524790000Y12860000D01*
X517647500Y26397500D02*
X517647500Y18082500D01*
X436470000Y57887998D02*
X440018999Y54338999D01*
X517647500Y29032500D02*
X517647500Y26397500D01*
X519120000Y16610000D02*
X519120000Y15020000D01*
X440018999Y54338999D02*
X440021001Y54338999D01*
X436470000Y59270000D02*
X436470000Y57887998D01*
X517647500Y59752500D02*
X514620000Y56725000D01*
X440518999Y53838999D02*
X441526011Y53838999D01*
X521280000Y12860000D02*
X524790000Y12860000D01*
X440018999Y54338999D02*
X440518999Y53838999D01*
X526460000Y11200000D02*
X527172500Y10487500D01*
X441526011Y53758999D02*
X441530000Y53755010D01*
X514620000Y56725000D02*
X514620000Y55280000D01*
X451010000Y63540000D02*
X454560000Y63540000D01*
X430562000Y70160000D02*
X430562000Y71800000D01*
X427940000Y67550000D02*
X427952000Y67550000D01*
X427952000Y67550000D02*
X430562000Y70160000D01*
X425900000Y57040000D02*
X425120000Y57820000D01*
X425120000Y57820000D02*
X425120000Y60900000D01*
X425120000Y60900000D02*
X427940000Y63720000D01*
X427870000Y57040000D02*
X425900000Y57040000D01*
X429150000Y55760000D02*
X427870000Y57040000D01*
X515814000Y-22242500D02*
X513779000Y-22242500D01*
X457420020Y30412800D02*
X453190020Y34642800D01*
X461860000Y-9100000D02*
X462370000Y-9100000D01*
X467925000Y-22290000D02*
X465890000Y-22290000D01*
X454210020Y53976090D02*
X455372280Y55138350D01*
X466200010Y-3597008D02*
X466200010Y11556400D01*
X446757500Y-22242500D02*
X444722500Y-22242500D01*
X466471002Y-4998998D02*
X466471002Y-3868000D01*
X425326000Y-22242500D02*
X423291000Y-22242500D01*
X455372280Y55138350D02*
X455372280Y55704035D01*
X472070000Y70890000D02*
X472070000Y72390000D01*
X453250000Y75580000D02*
X451370000Y77460000D01*
X472070000Y72390000D02*
X468880000Y75580000D01*
X451370000Y77460000D02*
X421640000Y77460000D01*
X468880000Y75580000D02*
X453250000Y75580000D01*
X421640000Y77460000D02*
X418690000Y74510000D01*
X519790000Y-2330000D02*
X519710000Y-2410000D01*
X421230000Y74510000D02*
X418294547Y71574547D01*
X415960000Y70695002D02*
X415960000Y-400000D01*
X416839545Y71574547D02*
X415960000Y70695002D01*
X418294547Y71574547D02*
X416839545Y71574547D01*
X415960000Y-400000D02*
X417640000Y-2080000D01*
X529220000Y-4580000D02*
X529510000Y-4870000D01*
X422130000Y60910000D02*
X417760000Y60910000D01*
X420016000Y26397500D02*
X420016000Y12110500D01*
X417635000Y33415000D02*
X420016000Y31034000D01*
X417635000Y45447500D02*
X417635000Y33415000D01*
X417760000Y60910000D02*
X417602999Y60752999D01*
X417635000Y66655000D02*
X417602999Y66622999D01*
X417602999Y57162999D02*
X417602999Y45479501D01*
X420016000Y12110500D02*
X424779000Y7347500D01*
X424779000Y-2219000D02*
X420016000Y-6982000D01*
X417602999Y66622999D02*
X417602999Y60752999D01*
X417602999Y60752999D02*
X417602999Y57162999D01*
X424779000Y7347500D02*
X424779000Y-2219000D01*
X417602999Y45479501D02*
X417635000Y45447500D01*
X417635000Y69260000D02*
X417635000Y66655000D01*
X423770000Y59270000D02*
X422130000Y60910000D01*
X420016000Y-6982000D02*
X420016000Y-11702500D01*
X420016000Y31034000D02*
X420016000Y26397500D01*
X437557001Y46319501D02*
X436685000Y45447500D01*
X441447500Y26397500D02*
X441447500Y17712500D01*
X432842999Y61027001D02*
X432842999Y58287001D01*
X437557001Y48812999D02*
X437557001Y46319501D01*
X428070000Y61030000D02*
X432840000Y61030000D01*
X436685000Y64869002D02*
X432842999Y61027001D01*
X450990000Y-60000D02*
X450990000Y7330000D01*
X445872500Y7347500D02*
X450972500Y7347500D01*
X438630000Y54100000D02*
X438630000Y49885998D01*
X432842999Y58287001D02*
X433580000Y57550000D01*
X436685000Y45447500D02*
X436685000Y33515000D01*
X441447500Y-11702500D02*
X441447500Y-9602500D01*
X432840000Y61030000D02*
X432842999Y61027001D01*
X433580000Y57550000D02*
X435170000Y57550000D01*
X441447500Y17712500D02*
X443200000Y15960000D01*
X438630000Y49885998D02*
X437557001Y48812999D01*
X450990000Y7330000D02*
X450972500Y7347500D01*
X437480010Y55239990D02*
X437490010Y55239990D01*
X441447500Y-9602500D02*
X450990000Y-60000D01*
X436685000Y33515000D02*
X441447500Y28752500D01*
X426310000Y59270000D02*
X428070000Y61030000D01*
X443200000Y10020000D02*
X445872500Y7347500D01*
X441447500Y28752500D02*
X441447500Y26397500D01*
X436685000Y69260000D02*
X436685000Y64869002D01*
X435170000Y57550000D02*
X437480010Y55239990D01*
X437490010Y55239990D02*
X438630000Y54100000D01*
X443200000Y15960000D02*
X443200000Y10020000D01*
X437663590Y53783590D02*
X437729980Y53717200D01*
X437729980Y50258798D02*
X436656982Y49185800D01*
X470022500Y-2207500D02*
X462865000Y-9365000D01*
X434496100Y47472510D02*
X433969991Y46946401D01*
X436656982Y49185800D02*
X436656982Y48733392D01*
X436433590Y55013590D02*
X437663590Y53783590D01*
X455735000Y45447500D02*
X455735000Y36835000D01*
X470022500Y7347500D02*
X470022500Y-2207500D01*
X437729980Y51780000D02*
X437729980Y50258798D01*
X455735000Y60645000D02*
X455735000Y69260000D01*
X428850000Y59270000D02*
X431670010Y56449990D01*
X462865000Y-9365000D02*
X462865000Y-11680000D01*
X433969991Y46946401D02*
X433694999Y46671409D01*
X434997190Y56449990D02*
X436433590Y55013590D01*
X470012500Y10937500D02*
X467450000Y13500000D01*
X455735000Y33645000D02*
X460497500Y28882500D01*
X467450000Y13500000D02*
X463100000Y13500000D01*
X463100000Y13500000D02*
X460497500Y16102500D01*
X455735000Y52785000D02*
X457150000Y54200000D01*
X437729980Y53717200D02*
X437729980Y51780000D01*
X457150000Y59230000D02*
X455735000Y60645000D01*
X431670010Y56449990D02*
X434997190Y56449990D01*
X470022500Y10937500D02*
X470012500Y10937500D01*
X460497500Y28882500D02*
X460497500Y26397500D01*
X455735000Y45447500D02*
X455735000Y52785000D01*
X460497500Y16102500D02*
X460497500Y17397500D01*
X436656982Y48733392D02*
X435396101Y47472511D01*
X470022500Y7347500D02*
X470022500Y10937500D01*
X433694999Y46671409D02*
X433694999Y36785001D01*
X457150000Y54200000D02*
X457150000Y59230000D01*
X435396101Y47472511D02*
X434496100Y47472510D01*
X433694999Y36785001D02*
X433700000Y36780000D01*
X455735000Y36835000D02*
X455735000Y33645000D01*
X460497500Y17397500D02*
X460497500Y26397500D01*
X431390000Y58192370D02*
X432682370Y56900000D01*
X474785000Y38425000D02*
X474785000Y33725000D01*
X486530000Y13570000D02*
X480690000Y13570000D01*
X438179990Y50072398D02*
X437106992Y48999400D01*
X474785000Y55055000D02*
X474785000Y45447500D01*
X434682501Y47022501D02*
X434420000Y46760000D01*
X479547500Y14712500D02*
X479547500Y26397500D01*
X479547500Y69260000D02*
X479547500Y59817500D01*
X479547500Y59817500D02*
X474785000Y55055000D01*
X431390000Y59270000D02*
X431390000Y58192370D01*
X484325000Y-6795000D02*
X484325000Y-11710000D01*
X480690000Y13570000D02*
X479547500Y14712500D01*
X489072500Y7347500D02*
X489072500Y-2047500D01*
X489072500Y11027500D02*
X486530000Y13570000D01*
X489072500Y7347500D02*
X489072500Y11027500D01*
X434420000Y46760000D02*
X434420000Y38470000D01*
X432682370Y56900000D02*
X435183590Y56900000D01*
X479547500Y28962500D02*
X479547500Y26397500D01*
X435582501Y47022501D02*
X434682501Y47022501D01*
X489072500Y-2047500D02*
X484325000Y-6795000D01*
X529520000Y-2430000D02*
X519730000Y-2430000D01*
X526000000Y-5010000D02*
X526040000Y-4970000D01*
X526040000Y-4970000D02*
X529520000Y-4970000D01*
X519730000Y-2430000D02*
X519710000Y-2410000D01*
X420506500Y58546500D02*
X420506500Y54926880D01*
X439847499Y17912501D02*
X442370000Y15390000D01*
X420506500Y54926880D02*
X422243380Y53190000D01*
X432162001Y46032001D02*
X432670000Y45524002D01*
X422243380Y53190000D02*
X429230000Y53190000D01*
X421230000Y59270000D02*
X420506500Y58546500D01*
X429230000Y53190000D02*
X432162001Y50257999D01*
X442370000Y15390000D02*
X442370000Y-2410000D01*
X432670000Y35400000D02*
X439847499Y28222501D01*
X432670000Y45524002D02*
X432670000Y35400000D01*
X439847499Y28222501D02*
X439847499Y17912501D01*
X432162001Y50257999D02*
X432162001Y46032001D01*
M02*
