G04 #@! TF.GenerationSoftware,KiCad,Pcbnew,7.0.8*
G04 #@! TF.CreationDate,2023-10-21T06:46:12+09:00*
G04 #@! TF.ProjectId,ckb9,636b6239-2e6b-4696-9361-645f70636258,rev?*
G04 #@! TF.SameCoordinates,Original*
G04 #@! TF.FileFunction,Copper,L1,Top*
G04 #@! TF.FilePolarity,Positive*
%FSLAX46Y46*%
G04 Gerber Fmt 4.6, Leading zero omitted, Abs format (unit mm)*
G04 Created by KiCad (PCBNEW 7.0.8) date 2023-10-21 06:46:12*
%MOMM*%
%LPD*%
G01*
G04 APERTURE LIST*
G04 #@! TA.AperFunction,ComponentPad*
%ADD10R,1.397000X1.397000*%
G04 #@! TD*
G04 #@! TA.AperFunction,SMDPad,CuDef*
%ADD11R,1.300000X0.950000*%
G04 #@! TD*
G04 #@! TA.AperFunction,ComponentPad*
%ADD12C,1.397000*%
G04 #@! TD*
G04 #@! TA.AperFunction,ComponentPad*
%ADD13O,1.700000X2.500000*%
G04 #@! TD*
G04 #@! TA.AperFunction,ComponentPad*
%ADD14C,1.524000*%
G04 #@! TD*
G04 #@! TA.AperFunction,ViaPad*
%ADD15C,0.800000*%
G04 #@! TD*
G04 #@! TA.AperFunction,Conductor*
%ADD16C,0.250000*%
G04 #@! TD*
G04 APERTURE END LIST*
D10*
X421530000Y55760000D03*
D11*
X423565000Y55760000D03*
X427115000Y55760000D03*
D12*
X429150000Y55760000D03*
D10*
X497670000Y51567500D03*
D11*
X499705000Y51567500D03*
X503255000Y51567500D03*
D12*
X505290000Y51567500D03*
D10*
X478620000Y51567500D03*
D11*
X480655000Y51567500D03*
X484205000Y51567500D03*
D12*
X486240000Y51567500D03*
D10*
X459010000Y58720000D03*
D11*
X461045000Y58720000D03*
X464595000Y58720000D03*
D12*
X466630000Y58720000D03*
D10*
X520922500Y58720000D03*
D11*
X522957500Y58720000D03*
X526507500Y58720000D03*
D12*
X528542500Y58720000D03*
D10*
X440580000Y55760000D03*
D11*
X442615000Y55760000D03*
X446165000Y55760000D03*
D12*
X448200000Y55760000D03*
D10*
X501872500Y58720000D03*
D11*
X503907500Y58720000D03*
X507457500Y58720000D03*
D12*
X509492500Y58720000D03*
D10*
X516720000Y51567500D03*
D11*
X518755000Y51567500D03*
X522305000Y51567500D03*
D12*
X524340000Y51567500D03*
D10*
X513779000Y-22242500D03*
D11*
X515814000Y-22242500D03*
X519364000Y-22242500D03*
D12*
X521399000Y-22242500D03*
D10*
X463772500Y15857500D03*
D11*
X465807500Y15857500D03*
X469357500Y15857500D03*
D12*
X471392500Y15857500D03*
D10*
X482822500Y15857500D03*
D11*
X484857500Y15857500D03*
X488407500Y15857500D03*
D12*
X490442500Y15857500D03*
D10*
X501872500Y15857500D03*
D11*
X503907500Y15857500D03*
X507457500Y15857500D03*
D12*
X509492500Y15857500D03*
D10*
X520922500Y15857500D03*
D11*
X522957500Y15857500D03*
X526507500Y15857500D03*
D12*
X528542500Y15857500D03*
D10*
X451757500Y12977500D03*
D11*
X453792500Y12977500D03*
X457342500Y12977500D03*
D12*
X459377500Y12977500D03*
D10*
X470807500Y12977500D03*
D11*
X472842500Y12977500D03*
X476392500Y12977500D03*
D12*
X478427500Y12977500D03*
D10*
X489857500Y12977500D03*
D11*
X491892500Y12977500D03*
X495442500Y12977500D03*
D12*
X497477500Y12977500D03*
D10*
X504090000Y13050000D03*
D11*
X506125000Y13050000D03*
X509675000Y13050000D03*
D12*
X511710000Y13050000D03*
D10*
X527957500Y12977500D03*
D11*
X529992500Y12977500D03*
X533542500Y12977500D03*
D12*
X535577500Y12977500D03*
D10*
X444722500Y-22242500D03*
D11*
X446757500Y-22242500D03*
X450307500Y-22242500D03*
D12*
X452342500Y-22242500D03*
D10*
X423291000Y15857500D03*
D11*
X425326000Y15857500D03*
X428876000Y15857500D03*
D12*
X430911000Y15857500D03*
D10*
X423291000Y-22242500D03*
D11*
X425326000Y-22242500D03*
X428876000Y-22242500D03*
D12*
X430911000Y-22242500D03*
D10*
X423250000Y12980000D03*
D11*
X425285000Y12980000D03*
X428835000Y12980000D03*
D12*
X430870000Y12980000D03*
D10*
X459570000Y51567500D03*
D11*
X461605000Y51567500D03*
X465155000Y51567500D03*
D12*
X467190000Y51567500D03*
D10*
X444722500Y15857500D03*
D11*
X446757500Y15857500D03*
X450307500Y15857500D03*
D12*
X452342500Y15857500D03*
D10*
X421470000Y51567500D03*
D11*
X423505000Y51567500D03*
X427055000Y51567500D03*
D12*
X429090000Y51567500D03*
D10*
X440520000Y51567500D03*
D11*
X442555000Y51567500D03*
X446105000Y51567500D03*
D12*
X448140000Y51567500D03*
D10*
X482822500Y58720000D03*
D11*
X484857500Y58720000D03*
X488407500Y58720000D03*
D12*
X490442500Y58720000D03*
D10*
X487800000Y-22290000D03*
D11*
X489835000Y-22290000D03*
X493385000Y-22290000D03*
D12*
X495420000Y-22290000D03*
D10*
X465890000Y-22290000D03*
D11*
X467925000Y-22290000D03*
X471475000Y-22290000D03*
D12*
X473510000Y-22290000D03*
D13*
X476270000Y69390000D03*
X472070000Y77890000D03*
X472070000Y74890000D03*
X472070000Y70890000D03*
D14*
X418690000Y59270000D03*
X421230000Y59270000D03*
X423770000Y59270000D03*
X426310000Y59270000D03*
X428850000Y59270000D03*
X431390000Y59270000D03*
X433930000Y59270000D03*
X436470000Y59270000D03*
X439010000Y59270000D03*
X439010000Y74510000D03*
X436470000Y74510000D03*
X433930000Y74510000D03*
X431390000Y74510000D03*
X428850000Y74510000D03*
X426310000Y74510000D03*
X423770000Y74510000D03*
X421230000Y74510000D03*
X418690000Y74510000D03*
D15*
X453310001Y55620000D03*
X451860000Y55560000D03*
X451800000Y51570000D03*
X454560000Y63540000D03*
X441530000Y53755010D03*
X514620000Y55280000D03*
X455800000Y18800000D03*
X451010000Y63540000D03*
X439670000Y53470000D03*
X474785000Y38425000D03*
X493835000Y52815000D03*
X434420000Y38470000D03*
X519560000Y-4580000D03*
X455735000Y36835000D03*
X433700000Y36780000D03*
X417640000Y-2080000D03*
X526000000Y-5010000D03*
X519710000Y-2410000D03*
X455372280Y55704035D03*
X460843501Y-23313501D03*
X442370000Y-2410000D03*
X454380000Y55580000D03*
D16*
X484760010Y54480010D02*
X503939990Y54480010D01*
X428876000Y15857500D02*
X430911000Y15857500D01*
X428876000Y-22242500D02*
X430911000Y-22242500D01*
X471475000Y-22290000D02*
X473510000Y-22290000D01*
X428835000Y12980000D02*
X430870000Y12980000D01*
X519364000Y-22242500D02*
X521399000Y-22242500D01*
X446165000Y55760000D02*
X448200000Y55760000D01*
X464595000Y58720000D02*
X466630000Y58720000D01*
X488407500Y58720000D02*
X490442500Y58720000D01*
X507457500Y58720000D02*
X509492500Y58720000D01*
X528542500Y58720000D02*
X526507500Y58720000D01*
X427055000Y51567500D02*
X429090000Y51567500D01*
X446105000Y51567500D02*
X448140000Y51567500D01*
X465155000Y51567500D02*
X467190000Y51567500D01*
X484205000Y51567500D02*
X486240000Y51567500D01*
X503255000Y51567500D02*
X505290000Y51567500D01*
X522305000Y51567500D02*
X524340000Y51567500D01*
X450307500Y15857500D02*
X452342500Y15857500D01*
X469357500Y15857500D02*
X471392500Y15857500D01*
X488407500Y15857500D02*
X490442500Y15857500D01*
X507457500Y15857500D02*
X509492500Y15857500D01*
X526507500Y15857500D02*
X528542500Y15857500D01*
X459377500Y12977500D02*
X457342500Y12977500D01*
X478427500Y12977500D02*
X476392500Y12977500D01*
X497477500Y12977500D02*
X495442500Y12977500D01*
X511710000Y13050000D02*
X509675000Y13050000D01*
X533542500Y12977500D02*
X535577500Y12977500D01*
X450307500Y-22242500D02*
X452342500Y-22242500D01*
X493385000Y-22290000D02*
X495420000Y-22290000D01*
X452451400Y73721400D02*
X452156400Y74016400D01*
X484857500Y15857500D02*
X484857500Y18742500D01*
X446700000Y18800000D02*
X439900000Y18800000D01*
X484857500Y18742500D02*
X484800000Y18800000D01*
X522957500Y15902500D02*
X520060000Y18800000D01*
X520060000Y18800000D02*
X506120000Y18800000D01*
X452156400Y74016400D02*
X452156400Y74006420D01*
X506120000Y18800000D02*
X503970000Y18800000D01*
X501872500Y15857500D02*
X503907500Y15857500D01*
X441055000Y75305000D02*
X441399990Y74960010D01*
X439510000Y18410000D02*
X426550000Y18410000D01*
X452156400Y74016400D02*
X451212791Y74960009D01*
X465807500Y18797500D02*
X465810000Y18800000D01*
X423291000Y15857500D02*
X425326000Y15857500D01*
X465810000Y18800000D02*
X455800000Y18800000D01*
X452156400Y74006420D02*
X452760020Y73402800D01*
X503907500Y15857500D02*
X503907500Y18737500D01*
X453310001Y55819411D02*
X453310001Y55620000D01*
X484800000Y18800000D02*
X465810000Y18800000D01*
X440222999Y75597001D02*
X435017001Y75597001D01*
X463772500Y15857500D02*
X465807500Y15857500D01*
X444722500Y15857500D02*
X446757500Y15857500D01*
X425326000Y17186000D02*
X425326000Y15857500D01*
X503907500Y18737500D02*
X503970000Y18800000D01*
X465807500Y15857500D02*
X465807500Y18797500D01*
X452760020Y73402800D02*
X452760020Y56369392D01*
X452760020Y56369392D02*
X453310001Y55819411D01*
X435017001Y75597001D02*
X433930000Y74510000D01*
X455800000Y18800000D02*
X446700000Y18800000D01*
X451212791Y74960009D02*
X441399990Y74960010D01*
X446757500Y15857500D02*
X446757500Y18742500D01*
X522957500Y15857500D02*
X522957500Y15902500D01*
X426550000Y18410000D02*
X425326000Y17186000D01*
X446757500Y18742500D02*
X446700000Y18800000D01*
X439900000Y18800000D02*
X439510000Y18410000D01*
X482822500Y15857500D02*
X484857500Y15857500D01*
X520922500Y15857500D02*
X522957500Y15857500D01*
X503970000Y18800000D02*
X484800000Y18800000D01*
X452451400Y73711420D02*
X452760020Y73402800D01*
X440515000Y75305000D02*
X440222999Y75597001D01*
X452451400Y73721400D02*
X452451400Y73711420D01*
X440515000Y75305000D02*
X441055000Y75305000D01*
X423250000Y12980000D02*
X425285000Y12980000D01*
X453792500Y12977500D02*
X451757500Y12977500D01*
X506125000Y13050000D02*
X504090000Y13050000D01*
X430650000Y11780000D02*
X430700000Y11730000D01*
X447860000Y75410019D02*
X451399192Y75410018D01*
X504090000Y13050000D02*
X504090000Y11920000D01*
X526837500Y11857500D02*
X527957500Y12977500D01*
X470807500Y11792500D02*
X470830000Y11770000D01*
X453210030Y56749970D02*
X454380000Y55580000D01*
X424110000Y11780000D02*
X430650000Y11780000D01*
X489857500Y11857500D02*
X489792500Y11792500D01*
X423250000Y12640000D02*
X424110000Y11780000D01*
X432927011Y76047011D02*
X440072989Y76047011D01*
X440764990Y75755010D02*
X441241401Y75755009D01*
X529992500Y12977500D02*
X527957500Y12977500D01*
X458920000Y11770000D02*
X470830000Y11770000D01*
X451399192Y75410018D02*
X453210030Y73599180D01*
X453210030Y73599180D02*
X453210030Y56749970D01*
X451757500Y11762500D02*
X451757500Y12977500D01*
X458880000Y11730000D02*
X458920000Y11770000D01*
X470807500Y11792500D02*
X489792500Y11792500D01*
X491892500Y12977500D02*
X489857500Y12977500D01*
X451790000Y11730000D02*
X458880000Y11730000D01*
X430700000Y11730000D02*
X451790000Y11730000D01*
X441241401Y75755009D02*
X441586391Y75410019D01*
X504090000Y11920000D02*
X504152500Y11857500D01*
X472842500Y12977500D02*
X470807500Y12977500D01*
X489857500Y11857500D02*
X504152500Y11857500D01*
X431390000Y74510000D02*
X432927011Y76047011D01*
X423250000Y12980000D02*
X423250000Y12640000D01*
X470807500Y12977500D02*
X470807500Y11792500D01*
X440072989Y76047011D02*
X440472989Y76047011D01*
X441586391Y75410019D02*
X447860000Y75410019D01*
X504152500Y11857500D02*
X526837500Y11857500D01*
X489857500Y12977500D02*
X489857500Y11857500D01*
X440472989Y76047011D02*
X440764990Y75755010D01*
X451790000Y11730000D02*
X451757500Y11762500D01*
X479332998Y-22930000D02*
X479716499Y-23313501D01*
X446757500Y-22242500D02*
X446757500Y-23227500D01*
X467876499Y-23313501D02*
X476666499Y-23313501D01*
X513779000Y-22242500D02*
X515814000Y-22242500D01*
X451585593Y75860027D02*
X453660040Y73785580D01*
X476666499Y-23313501D02*
X477050000Y-22930000D01*
X450749972Y75860028D02*
X451585593Y75860027D01*
X446843501Y-23313501D02*
X460843501Y-23313501D01*
X430630000Y76320000D02*
X430840000Y76530000D01*
X425326000Y-22242500D02*
X425326000Y-22967500D01*
X430630000Y76290000D02*
X430630000Y76320000D01*
X467925000Y-23265000D02*
X467876499Y-23313501D01*
X453660040Y57372962D02*
X455350000Y55683002D01*
X441772791Y75860029D02*
X450749972Y75860028D01*
X455351247Y55683002D02*
X455372280Y55704035D01*
X514742999Y-23313501D02*
X515814000Y-22242500D01*
X440951391Y76205019D02*
X441427802Y76205018D01*
X487800000Y-22290000D02*
X489835000Y-22290000D01*
X430630000Y76290000D02*
X430850000Y76510000D01*
X425672001Y-23313501D02*
X446843501Y-23313501D01*
X455350000Y55683002D02*
X455351247Y55683002D01*
X425326000Y-22967500D02*
X425672001Y-23313501D01*
X489706499Y-23313501D02*
X514742999Y-23313501D01*
X489835000Y-22290000D02*
X489835000Y-23185000D01*
X440659390Y76497020D02*
X440951391Y76205019D01*
X428850000Y74510000D02*
X430837021Y76497021D01*
X423291000Y-22242500D02*
X425326000Y-22242500D01*
X465890000Y-22290000D02*
X467925000Y-22290000D01*
X441427802Y76205018D02*
X441772791Y75860029D01*
X467925000Y-22290000D02*
X467925000Y-23265000D01*
X444722500Y-22242500D02*
X446757500Y-22242500D01*
X477050000Y-22930000D02*
X479332998Y-22930000D01*
X453660040Y73785580D02*
X453660040Y58920000D01*
X446757500Y-23227500D02*
X446843501Y-23313501D01*
X460843501Y-23313501D02*
X467876499Y-23313501D01*
X453660040Y58920000D02*
X453660040Y57372962D01*
X430837021Y76497021D02*
X440659390Y76497020D01*
X479716499Y-23313501D02*
X489706499Y-23313501D01*
X489835000Y-23185000D02*
X489706499Y-23313501D01*
X428850000Y74510000D02*
X430630000Y76290000D01*
X461045000Y58720000D02*
X461045000Y54535020D01*
X520922500Y58720000D02*
X522957500Y58720000D01*
X503907500Y58720000D02*
X503907500Y54512500D01*
X452500010Y54480010D02*
X453179990Y54480010D01*
X423565000Y55760000D02*
X421530000Y55760000D01*
X424844990Y54480010D02*
X442619990Y54480010D01*
X450670000Y74510000D02*
X451026390Y74510000D01*
X423565000Y55760000D02*
X424844990Y54480010D01*
X499705000Y51567500D02*
X497670000Y51567500D01*
X440842999Y73422999D02*
X437557001Y73422999D01*
X437335000Y52735000D02*
X438502500Y51567500D01*
X451860000Y73030000D02*
X450839990Y74050010D01*
X495180000Y52260000D02*
X494530000Y51610000D01*
X480675000Y52745000D02*
X491705000Y52745000D01*
X436050000Y54030000D02*
X425967500Y54030000D01*
X518755000Y51567500D02*
X516720000Y51567500D01*
X450839990Y74050010D02*
X450839990Y74059990D01*
X499705000Y51567500D02*
X499705000Y52765000D01*
X480655000Y52725000D02*
X480675000Y52745000D01*
X451860000Y55560000D02*
X451860000Y73030000D01*
X461605000Y51567500D02*
X461605000Y52635000D01*
X492840000Y51610000D02*
X491705000Y52745000D01*
X461605000Y51567500D02*
X459570000Y51567500D01*
X442555000Y51567500D02*
X442555000Y51855000D01*
X437335000Y52745000D02*
X437335000Y52735000D01*
X499685000Y52745000D02*
X499705000Y52765000D01*
X494530000Y51610000D02*
X492840000Y51610000D01*
X451800000Y51570000D02*
X459567500Y51570000D01*
X461605000Y52635000D02*
X461715000Y52745000D01*
X499705000Y52765000D02*
X507845000Y52765000D01*
X459567500Y51570000D02*
X459570000Y51567500D01*
X461555000Y52745000D02*
X461715000Y52745000D01*
X480655000Y51567500D02*
X478620000Y51567500D01*
X518755000Y51915000D02*
X518755000Y51567500D01*
X509110000Y54030000D02*
X516640000Y54030000D01*
X495645000Y52745000D02*
X499685000Y52745000D01*
X450839990Y74059990D02*
X441479990Y74059990D01*
X425967500Y54030000D02*
X423505000Y51567500D01*
X437335000Y52745000D02*
X436050000Y54030000D01*
X437557001Y73422999D02*
X436470000Y74510000D01*
X442555000Y51855000D02*
X443445000Y52745000D01*
X480655000Y51567500D02*
X480655000Y52725000D01*
X441479990Y74059990D02*
X440842999Y73422999D01*
X461715000Y52745000D02*
X480675000Y52745000D01*
X421470000Y51567500D02*
X423505000Y51567500D01*
X507845000Y52765000D02*
X509110000Y54030000D01*
X495180000Y52280000D02*
X495645000Y52745000D01*
X516640000Y54030000D02*
X518755000Y51915000D01*
X495180000Y52260000D02*
X495180000Y52280000D01*
X438502500Y51567500D02*
X440520000Y51567500D01*
X443445000Y52745000D02*
X461555000Y52745000D01*
X442555000Y51567500D02*
X440520000Y51567500D01*
X461100010Y54480010D02*
X484760010Y54480010D01*
X442619990Y54480010D02*
X452500010Y54480010D01*
X506870010Y54480010D02*
X508720000Y56330000D01*
X484857500Y58720000D02*
X482822500Y58720000D01*
X452585001Y55908001D02*
X452585001Y54565001D01*
X521520000Y56330000D02*
X522957500Y57767500D01*
X439010000Y74510000D02*
X450670000Y74510000D01*
X503939990Y54480010D02*
X506870010Y54480010D01*
X451026390Y74510000D02*
X451400000Y74136390D01*
X484857500Y54577500D02*
X484760010Y54480010D01*
X452585001Y54565001D02*
X452500010Y54480010D01*
X442615000Y54485000D02*
X442619990Y54480010D01*
X461045000Y54535020D02*
X461100010Y54480010D01*
X508720000Y56330000D02*
X521520000Y56330000D01*
X451400000Y74136390D02*
X451400000Y74126410D01*
X503907500Y54512500D02*
X503939990Y54480010D01*
X522957500Y57767500D02*
X522957500Y58720000D01*
X484857500Y58720000D02*
X484857500Y54577500D01*
X461045000Y58720000D02*
X459010000Y58720000D01*
X452310010Y56182992D02*
X452585001Y55908001D01*
X442615000Y55760000D02*
X442615000Y54485000D01*
X503907500Y58720000D02*
X501872500Y58720000D01*
X440109991Y53030009D02*
X443093599Y53030009D01*
X448610008Y53579992D02*
X448755000Y53435000D01*
X443093599Y53030009D02*
X443643582Y53579992D01*
X439670000Y53470000D02*
X440109991Y53030009D01*
X448755000Y53435000D02*
X492045000Y53435000D01*
X493215000Y53435000D02*
X493835000Y52815000D01*
X443643582Y53579992D02*
X448610008Y53579992D01*
X492045000Y53435000D02*
X493215000Y53435000D01*
X441530000Y53755010D02*
X441804990Y54030000D01*
X507056411Y54030001D02*
X508306410Y55280000D01*
X441804990Y54030000D02*
X442290000Y54030000D01*
X442290000Y54030000D02*
X507056411Y54030001D01*
X441884990Y54030000D02*
X442290000Y54030000D01*
X508306410Y55280000D02*
X514620000Y55280000D01*
X473245010Y74003295D02*
X473245010Y76714990D01*
X473245010Y64145010D02*
X473245010Y72245988D01*
X472070000Y77470000D02*
X472070000Y77890000D01*
X472640000Y63540000D02*
X473245010Y64145010D01*
X472970000Y73728285D02*
X473245010Y74003295D01*
X473245010Y72245988D02*
X472970000Y72520998D01*
X473245010Y76714990D02*
X472070000Y77890000D01*
X454560000Y63540000D02*
X472640000Y63540000D01*
X472970000Y72520998D02*
X472970000Y73728285D01*
X429150000Y55760000D02*
X427115000Y55760000D01*
X416990000Y40890000D02*
X416990000Y72810000D01*
X416990000Y72810000D02*
X418690000Y74510000D01*
X422830000Y210000D02*
X417780000Y5260000D01*
X417780000Y5260000D02*
X417780000Y40100000D01*
X519620000Y210000D02*
X422830000Y210000D01*
X417780000Y40100000D02*
X416990000Y40890000D01*
X418060000Y59270000D02*
X418690000Y59270000D01*
X519710000Y-2410000D02*
X442370000Y-2410000D01*
X417640000Y-2080000D02*
X420140000Y-4580000D01*
X441614201Y76655027D02*
X441959190Y76310038D01*
X442960000Y76310038D02*
X451771994Y76310036D01*
X420140000Y-4580000D02*
X519560000Y-4580000D01*
X453192030Y74890000D02*
X472070000Y74890000D01*
X441154969Y76655031D02*
X441614201Y76655027D01*
X440862970Y76947030D02*
X441154969Y76655031D01*
X431072970Y76947030D02*
X440862970Y76947030D01*
X423700009Y76980009D02*
X431039991Y76980009D01*
X441959190Y76310038D02*
X442960000Y76310038D01*
X451771994Y76310036D02*
X453192030Y74890000D01*
X421230000Y74510000D02*
X423700009Y76980009D01*
X431039991Y76980009D02*
X431072970Y76947030D01*
X455680000Y36780000D02*
X455735000Y36835000D01*
X433700000Y36780000D02*
X455680000Y36780000D01*
X434420000Y38470000D02*
X474740000Y38470000D01*
X474740000Y38470000D02*
X474785000Y38425000D01*
X442615000Y55760000D02*
X440580000Y55760000D01*
X453179990Y54480010D02*
X461100010Y54480010D01*
X519620000Y210000D02*
X520780000Y210000D01*
X520780000Y210000D02*
X526000000Y-5010000D01*
X451400000Y74126410D02*
X452310010Y73216400D01*
X452310010Y73216400D02*
X452310010Y56182992D01*
X418690000Y59270000D02*
X422960000Y63540000D01*
X422960000Y63540000D02*
X451010000Y63540000D01*
M02*
