G04 #@! TF.GenerationSoftware,KiCad,Pcbnew,7.0.8*
G04 #@! TF.CreationDate,2023-10-10T15:47:13+09:00*
G04 #@! TF.ProjectId,ckb9,636b6239-2e6b-4696-9361-645f70636258,rev?*
G04 #@! TF.SameCoordinates,Original*
G04 #@! TF.FileFunction,Profile,NP*
%FSLAX46Y46*%
G04 Gerber Fmt 4.6, Leading zero omitted, Abs format (unit mm)*
G04 Created by KiCad (PCBNEW 7.0.8) date 2023-10-10 15:47:13*
%MOMM*%
%LPD*%
G01*
G04 APERTURE LIST*
G04 #@! TA.AperFunction,Profile*
%ADD10C,0.150000*%
G04 #@! TD*
G04 #@! TA.AperFunction,Profile*
%ADD11C,0.100000*%
G04 #@! TD*
G04 APERTURE END LIST*
D10*
X160740020Y-444540000D02*
G75*
G03*
X161740000Y-445540000I999990J-10D01*
G01*
X277080000Y-417890002D02*
G75*
G03*
X276069952Y-418890472I-9990J-1000008D01*
G01*
X155450020Y-439230000D02*
G75*
G03*
X156760000Y-440540000I1309990J-10D01*
G01*
X276069952Y-418890000D02*
X276070000Y-440540000D01*
D11*
X259545000Y-353433500D02*
X259545000Y-339434200D01*
X273545000Y-353433500D02*
X259545000Y-353433500D01*
X273545000Y-339434200D02*
X273545000Y-353433500D01*
X259545000Y-339434200D02*
X273545000Y-339434200D01*
X240495200Y-353433500D02*
X240495200Y-339434200D01*
X254494500Y-353433500D02*
X240495200Y-353433500D01*
X254494500Y-339434200D02*
X254494500Y-353433500D01*
X240495200Y-339434200D02*
X254494500Y-339434200D01*
X221445200Y-353433500D02*
X221445200Y-339434200D01*
X235444500Y-353433500D02*
X221445200Y-353433500D01*
X235444500Y-339434200D02*
X235444500Y-353433500D01*
X221445200Y-339434200D02*
X235444500Y-339434200D01*
X197632700Y-353433500D02*
X197632700Y-339434200D01*
X211632000Y-353433500D02*
X197632700Y-353433500D01*
X211632000Y-339434200D02*
X211632000Y-353433500D01*
X197632700Y-339434200D02*
X211632000Y-339434200D01*
X178582700Y-353433500D02*
X178582700Y-339434200D01*
X192582000Y-353433500D02*
X178582700Y-353433500D01*
X192582000Y-339434200D02*
X192582000Y-353433500D01*
X178582700Y-339434200D02*
X192582000Y-339434200D01*
X159532650Y-353433500D02*
X159532650Y-339434200D01*
X173532200Y-353433500D02*
X159532650Y-353433500D01*
X173532200Y-339434200D02*
X173532200Y-353433500D01*
X159532650Y-339434200D02*
X173532200Y-339434200D01*
X254781300Y-377246000D02*
X254781300Y-363246700D01*
X268782000Y-377246000D02*
X254781300Y-377246000D01*
X268782000Y-363246700D02*
X268782000Y-377246000D01*
X254781300Y-363246700D02*
X268782000Y-363246700D01*
X235732700Y-377246000D02*
X235732700Y-363246700D01*
X249732000Y-377246000D02*
X235732700Y-377246000D01*
X249732000Y-363246700D02*
X249732000Y-377246000D01*
X235732700Y-363246700D02*
X249732000Y-363246700D01*
X216682700Y-377246000D02*
X216682700Y-363246700D01*
X230682000Y-377246000D02*
X216682700Y-377246000D01*
X230682000Y-363246700D02*
X230682000Y-377246000D01*
X216682700Y-363246700D02*
X230682000Y-363246700D01*
X197632700Y-377246000D02*
X197632700Y-363246700D01*
X211632000Y-377246000D02*
X197632700Y-377246000D01*
X211632000Y-363246700D02*
X211632000Y-377246000D01*
X197632700Y-363246700D02*
X211632000Y-363246700D01*
X178582700Y-377246000D02*
X178582700Y-363246700D01*
X192582000Y-377246000D02*
X178582700Y-377246000D01*
X192582000Y-363246700D02*
X192582000Y-377246000D01*
X178582700Y-363246700D02*
X192582000Y-363246700D01*
X159532650Y-377246000D02*
X159532650Y-363246700D01*
X173532200Y-377246000D02*
X159532650Y-377246000D01*
X173532200Y-363246700D02*
X173532200Y-377246000D01*
X159532650Y-363246700D02*
X173532200Y-363246700D01*
X259545000Y-396296000D02*
X259545000Y-382296700D01*
X273545000Y-396296000D02*
X259545000Y-396296000D01*
X273545000Y-382296700D02*
X273545000Y-396296000D01*
X259545000Y-382296700D02*
X273545000Y-382296700D01*
X240495200Y-396296000D02*
X240495200Y-382296700D01*
X254494500Y-396296000D02*
X240495200Y-396296000D01*
X254494500Y-382296700D02*
X254494500Y-396296000D01*
X240495200Y-382296700D02*
X254494500Y-382296700D01*
X221445200Y-396296000D02*
X221445200Y-382296700D01*
X235444500Y-396296000D02*
X221445200Y-396296000D01*
X235444500Y-382296700D02*
X235444500Y-396296000D01*
X221445200Y-382296700D02*
X235444500Y-382296700D01*
X202395200Y-396296000D02*
X202395200Y-382296700D01*
X216394500Y-396296000D02*
X202395200Y-396296000D01*
X216394500Y-382296700D02*
X216394500Y-396296000D01*
X202395200Y-382296700D02*
X216394500Y-382296700D01*
X183345200Y-396296000D02*
X183345200Y-382296700D01*
X197344500Y-396296000D02*
X183345200Y-396296000D01*
X197344500Y-382296700D02*
X197344500Y-396296000D01*
X183345200Y-382296700D02*
X197344500Y-382296700D01*
X161913910Y-396296000D02*
X161913910Y-382296700D01*
X175913400Y-396296000D02*
X161913910Y-396296000D01*
X175913400Y-382296700D02*
X175913400Y-396296000D01*
X161913910Y-382296700D02*
X175913400Y-382296700D01*
X269070000Y-415346100D02*
X269070000Y-401346700D01*
X283070000Y-415346100D02*
X269070000Y-415346100D01*
X283070000Y-401346700D02*
X283070000Y-415346100D01*
X269070000Y-401346700D02*
X283070000Y-401346700D01*
X250020200Y-415346100D02*
X250020200Y-401346700D01*
X264020000Y-415346100D02*
X250020200Y-415346100D01*
X264020000Y-401346700D02*
X264020000Y-415346100D01*
X250020200Y-401346700D02*
X264020000Y-401346700D01*
X230970200Y-415346100D02*
X230970200Y-401346700D01*
X244969500Y-415346100D02*
X230970200Y-415346100D01*
X244969500Y-401346700D02*
X244969500Y-415346100D01*
X230970200Y-401346700D02*
X244969500Y-401346700D01*
X211920200Y-415346100D02*
X211920200Y-401346700D01*
X225919500Y-415346100D02*
X211920200Y-415346100D01*
X225919500Y-401346700D02*
X225919500Y-415346100D01*
X211920200Y-401346700D02*
X225919500Y-401346700D01*
X192870200Y-415346100D02*
X192870200Y-401346700D01*
X206869500Y-415346100D02*
X192870200Y-415346100D01*
X206869500Y-401346700D02*
X206869500Y-415346100D01*
X192870200Y-401346700D02*
X206869500Y-401346700D01*
X166675030Y-415346100D02*
X166675030Y-401346700D01*
X180675900Y-415346100D02*
X166675030Y-415346100D01*
X180675900Y-401346700D02*
X180675900Y-415346100D01*
X166675030Y-401346700D02*
X180675900Y-401346700D01*
X252400100Y-434396090D02*
X252400100Y-420396600D01*
X266401000Y-434396090D02*
X252400100Y-434396090D01*
X266401000Y-420396600D02*
X266401000Y-434396090D01*
X252400100Y-420396600D02*
X266401000Y-420396600D01*
X226206300Y-434396090D02*
X226206300Y-420396600D01*
X240207000Y-434396090D02*
X226206300Y-434396090D01*
X240207000Y-420396600D02*
X240207000Y-434396090D01*
X226206300Y-420396600D02*
X240207000Y-420396600D01*
X204775100Y-434396090D02*
X204775100Y-420396600D01*
X218775800Y-434396090D02*
X204775100Y-434396090D01*
X218775800Y-420396600D02*
X218775800Y-434396090D01*
X204775100Y-420396600D02*
X218775800Y-420396600D01*
X183345200Y-434396090D02*
X183345200Y-420396600D01*
X197344500Y-434396090D02*
X183345200Y-434396090D01*
X197344500Y-420396600D02*
X197344500Y-434396090D01*
X183345200Y-420396600D02*
X197344500Y-420396600D01*
X161913910Y-434396090D02*
X161913910Y-420396600D01*
X175913400Y-434396090D02*
X161913910Y-434396090D01*
X175913400Y-420396600D02*
X175913400Y-434396090D01*
X161913910Y-420396600D02*
X175913400Y-420396600D01*
D10*
X200800020Y-328020000D02*
G75*
G03*
X199800000Y-327020000I-1000010J-10D01*
G01*
X268450000Y-327020000D02*
X230450000Y-327020000D01*
X230450000Y-327020000D02*
G75*
G03*
X229450000Y-328020000I10J-1000010D01*
G01*
X200740000Y-444540000D02*
X200740000Y-440540000D01*
X200740000Y-440540000D02*
X229290000Y-440540000D01*
X199740000Y-445540000D02*
G75*
G03*
X200740000Y-444540000I10J999990D01*
G01*
X161740000Y-445540000D02*
X199740000Y-445540000D01*
X160740000Y-440540000D02*
X160740000Y-444540000D01*
X269450000Y-332020000D02*
X269450000Y-328020000D01*
X160800000Y-328020000D02*
X160800000Y-332020000D01*
X229450000Y-332020000D02*
X200800000Y-332020000D01*
X284590000Y-417890000D02*
X277080000Y-417890000D01*
X276080022Y-397830000D02*
G75*
G03*
X277080472Y-398840048I999988J-10010D01*
G01*
X155450000Y-439230000D02*
X155450000Y-333330000D01*
X156760000Y-332020000D02*
G75*
G03*
X155450000Y-333330000I10J-1310010D01*
G01*
X156760000Y-332020000D02*
X160800000Y-332020000D01*
X272320000Y-379790000D02*
X275080000Y-379789952D01*
X277080000Y-398840048D02*
X284600000Y-398840000D01*
X285599970Y-399850048D02*
G75*
G03*
X284599528Y-398840000I-999960J10038D01*
G01*
X285600000Y-399850048D02*
X285600048Y-416890000D01*
X276080000Y-355990000D02*
X271320000Y-360750000D01*
X161800000Y-327020000D02*
G75*
G03*
X160800000Y-328020000I10J-1000010D01*
G01*
X269450020Y-328020000D02*
G75*
G03*
X268450000Y-327020000I-1000010J-10D01*
G01*
X276080018Y-380800000D02*
G75*
G03*
X275079528Y-379789952I-1000008J9990D01*
G01*
X271319970Y-378779952D02*
G75*
G03*
X272320472Y-379790000I1000040J-9958D01*
G01*
X229290020Y-444540000D02*
G75*
G03*
X230290000Y-445540000I999990J-10D01*
G01*
X199800000Y-327020000D02*
X161800000Y-327020000D01*
X271320000Y-360750000D02*
X271320000Y-378779952D01*
X276080000Y-332020000D02*
X276080000Y-355990000D01*
X276080000Y-332020000D02*
X269450000Y-332020000D01*
X269290000Y-444540000D02*
X269290000Y-440540000D01*
X269290000Y-440540000D02*
X276070000Y-440540000D01*
X268290000Y-445540000D02*
G75*
G03*
X269290000Y-444540000I10J999990D01*
G01*
X230290000Y-445540000D02*
X268290000Y-445540000D01*
X229290000Y-440540000D02*
X229290000Y-444540000D01*
X276080000Y-380800000D02*
X276080000Y-397830000D01*
X284590000Y-417889998D02*
G75*
G03*
X285600048Y-416889528I10010J999988D01*
G01*
X200800000Y-332020000D02*
X200800000Y-328020000D01*
X156760000Y-440540000D02*
X160740000Y-440540000D01*
X229450000Y-328020000D02*
X229450000Y-332020000D01*
M02*
