G04 #@! TF.GenerationSoftware,KiCad,Pcbnew,7.0.8*
G04 #@! TF.CreationDate,2023-10-29T20:23:16+09:00*
G04 #@! TF.ProjectId,ckb9,636b6239-2e6b-4696-9361-645f70636258,rev?*
G04 #@! TF.SameCoordinates,Original*
G04 #@! TF.FileFunction,Paste,Top*
G04 #@! TF.FilePolarity,Positive*
%FSLAX46Y46*%
G04 Gerber Fmt 4.6, Leading zero omitted, Abs format (unit mm)*
G04 Created by KiCad (PCBNEW 7.0.8) date 2023-10-29 20:23:16*
%MOMM*%
%LPD*%
G01*
G04 APERTURE LIST*
%ADD10R,1.300000X0.950000*%
G04 APERTURE END LIST*
D10*
X561057500Y58720000D03*
X564607500Y58720000D03*
X580107500Y58720000D03*
X583657500Y58720000D03*
X599157500Y58720000D03*
X602707500Y58720000D03*
X622970000Y58720000D03*
X626520000Y58720000D03*
X642020000Y58720000D03*
X645570000Y58720000D03*
X660795000Y54530000D03*
X664345000Y54530000D03*
X557085000Y51577500D03*
X560635000Y51577500D03*
X576135000Y51577500D03*
X579685000Y51577500D03*
X595185000Y51577500D03*
X598735000Y51577500D03*
X614235000Y51577500D03*
X617785000Y51577500D03*
X633285000Y51577500D03*
X636835000Y51577500D03*
X561057500Y15857500D03*
X564607500Y15857500D03*
X580107500Y15857500D03*
X583657500Y15857500D03*
X599157500Y15857500D03*
X602707500Y15857500D03*
X618207500Y15857500D03*
X621757500Y15857500D03*
X637257500Y15857500D03*
X640807500Y15857500D03*
X577945000Y13570000D03*
X581495000Y13570000D03*
X591672500Y13337500D03*
X595222500Y13337500D03*
X610722500Y13337500D03*
X614272500Y13337500D03*
X629772500Y13337500D03*
X633322500Y13337500D03*
X647355000Y13400000D03*
X650905000Y13400000D03*
X606125000Y-22360000D03*
X609675000Y-22360000D03*
X629637500Y-24147500D03*
X633187500Y-24147500D03*
X648687500Y-24147500D03*
X652237500Y-24147500D03*
X667737500Y-24147500D03*
X671287500Y-24147500D03*
X563438500Y-22242500D03*
X566988500Y-22242500D03*
X584835000Y-22290000D03*
X588385000Y-22290000D03*
X658688500Y25382500D03*
X662238500Y25382500D03*
M02*
