M48
; DRILL file {KiCad 7.0.8} date 2023 October 29, Sunday 20:23:18
; FORMAT={-:-/ absolute / metric / decimal}
; #@! TF.CreationDate,2023-10-29T20:23:18+09:00
; #@! TF.GenerationSoftware,Kicad,Pcbnew,7.0.8
; #@! TF.FileFunction,Plated,1,2,PTH
FMAT,2
METRIC
; #@! TA.AperFunction,Plated,PTH,ViaDrill
T1C0.400
; #@! TA.AperFunction,Plated,PTH,ComponentDrill
T2C0.813
; #@! TA.AperFunction,Plated,PTH,ComponentDrill
T3C1.000
%
G90
G05
T1
X554.632Y56.317
X572.38Y55.11
X573.95Y-4.76
X577.26Y-5.405
X580.05Y-4.68
X606.02Y55.1
X606.08Y56.33
X647.83Y47.01
X651.08Y50.19
X651.205Y52.215
X664.51Y-3.0
X664.53Y-5.74
X664.65Y-4.58
X671.79Y-5.78
X671.86Y-3.0
X671.89Y-4.47
T2
X555.05Y51.578
X559.022Y58.72
X559.022Y15.857
X561.404Y-22.242
X562.67Y51.578
X566.642Y58.72
X566.642Y15.857
X569.024Y-22.242
X574.1Y51.578
X575.91Y13.57
X578.072Y58.72
X578.072Y15.857
X581.72Y51.578
X582.8Y-22.29
X583.53Y13.57
X585.692Y58.72
X585.692Y15.857
X589.637Y13.337
X590.42Y-22.29
X593.15Y51.578
X597.122Y58.72
X597.122Y15.857
X597.257Y13.337
X600.77Y51.578
X604.09Y-22.36
X604.742Y58.72
X604.742Y15.857
X608.688Y13.337
X611.71Y-22.36
X612.2Y51.578
X616.173Y15.857
X616.308Y13.337
X619.82Y51.578
X620.935Y58.72
X623.793Y15.857
X627.602Y-24.147
X627.737Y13.337
X628.555Y58.72
X631.25Y51.578
X635.222Y15.857
X635.222Y-24.147
X635.357Y13.337
X638.87Y51.578
X639.985Y58.72
X642.842Y15.857
X645.32Y13.4
X646.652Y-24.147
X647.605Y58.72
X652.94Y13.4
X654.272Y-24.147
X655.23Y74.72
X655.23Y59.48
X656.654Y25.383
X657.77Y74.72
X657.77Y59.48
X658.76Y54.53
X660.31Y74.72
X660.31Y59.48
X662.85Y74.72
X662.85Y59.48
X664.274Y25.383
X665.39Y74.72
X665.39Y59.48
X665.702Y-24.147
X666.38Y54.53
X667.93Y74.72
X667.93Y59.48
X670.47Y74.72
X670.47Y59.48
X673.01Y74.72
X673.01Y59.48
X673.322Y-24.147
X675.55Y74.72
X675.55Y59.48
T3
G00X610.18Y77.64
M15
G01X610.18Y78.14
M16
G05
G00X610.18Y74.64
M15
G01X610.18Y75.14
M16
G05
G00X610.18Y70.64
M15
G01X610.18Y71.14
M16
G05
G00X614.38Y69.14
M15
G01X614.38Y69.64
M16
G05
T0
M30
