G04 #@! TF.GenerationSoftware,KiCad,Pcbnew,7.0.8*
G04 #@! TF.CreationDate,2023-10-29T20:23:16+09:00*
G04 #@! TF.ProjectId,ckb9,636b6239-2e6b-4696-9361-645f70636258,rev?*
G04 #@! TF.SameCoordinates,Original*
G04 #@! TF.FileFunction,Profile,NP*
%FSLAX46Y46*%
G04 Gerber Fmt 4.6, Leading zero omitted, Abs format (unit mm)*
G04 Created by KiCad (PCBNEW 7.0.8) date 2023-10-29 20:23:16*
%MOMM*%
%LPD*%
G01*
G04 APERTURE LIST*
G04 #@! TA.AperFunction,Profile*
%ADD10C,0.150000*%
G04 #@! TD*
G04 APERTURE END LIST*
D10*
X616590000Y79630000D02*
X678050000Y79630048D01*
X553310000Y-25890000D02*
X678039952Y-25890000D01*
X678039953Y-25889950D02*
G75*
G03*
X679050000Y-24890000I10047J999950D01*
G01*
X679049998Y78620000D02*
G75*
G03*
X678050000Y79630048I-999998J10000D01*
G01*
X553309952Y-5720000D02*
X553310000Y-25890000D01*
X562840000Y13319952D02*
X562840048Y-3720000D01*
X554320000Y-4720002D02*
G75*
G03*
X553309952Y-5720000I-10000J-999998D01*
G01*
X561830000Y-4719998D02*
G75*
G03*
X562840048Y-3720000I10000J999998D01*
G01*
X561830000Y-4720000D02*
X554320000Y-4720000D01*
X553320000Y57180000D02*
X548560000Y52420000D01*
X549560000Y33380000D02*
X552320000Y33380048D01*
X553320000Y32370000D02*
X553320000Y15340000D01*
X554320000Y14329952D02*
X561840000Y14330000D01*
X548560000Y52420000D02*
X548560000Y34390048D01*
X548560050Y34390047D02*
G75*
G03*
X549560000Y33380000I999950J-10047D01*
G01*
X553320002Y15340000D02*
G75*
G03*
X554320000Y14329952I999998J-10000D01*
G01*
X562839950Y13319953D02*
G75*
G03*
X561840000Y14330000I-999950J10047D01*
G01*
X553319998Y32370000D02*
G75*
G03*
X552320000Y33380048I-999998J10000D01*
G01*
X553320000Y79630000D02*
X553320000Y57180000D01*
X553320000Y79630000D02*
X607970000Y79630000D01*
X615180000Y81040000D02*
X616590000Y79630000D01*
X679050000Y-24890000D02*
X679050000Y78620000D01*
X609380000Y81040000D02*
X607970000Y79630000D01*
X615180000Y81040000D02*
X609380000Y81040000D01*
M02*
