M48
; DRILL file {KiCad 7.0.8} date 2023 October 29, Sunday 20:23:18
; FORMAT={-:-/ absolute / metric / decimal}
; #@! TF.CreationDate,2023-10-29T20:23:18+09:00
; #@! TF.GenerationSoftware,Kicad,Pcbnew,7.0.8
; #@! TF.FileFunction,NonPlated,1,2,NPTH
FMAT,2
METRIC
; #@! TA.AperFunction,NonPlated,NPTH,ComponentDrill
T1C1.200
; #@! TA.AperFunction,NonPlated,NPTH,ComponentDrill
T2C1.900
; #@! TA.AperFunction,NonPlated,NPTH,ComponentDrill
T3C3.000
; #@! TA.AperFunction,NonPlated,NPTH,ComponentDrill
T4C3.048
; #@! TA.AperFunction,NonPlated,NPTH,ComponentDrill
T5C3.988
; #@! TA.AperFunction,NonPlated,NPTH,ComponentDrill
T6C4.100
%
G90
G05
T1
X612.28Y79.69
X612.28Y72.69
T2
X552.99Y42.907
X557.752Y66.72
X557.752Y23.857
X560.134Y-14.242
X563.15Y42.907
X567.277Y4.808
X567.913Y66.72
X567.913Y23.857
X570.293Y-14.242
X572.04Y42.907
X576.803Y66.72
X576.803Y23.857
X577.438Y4.808
X581.565Y-14.242
X582.2Y42.907
X586.327Y4.808
X586.962Y66.72
X586.962Y23.857
X591.09Y42.907
X591.725Y-14.242
X595.852Y66.72
X595.852Y23.857
X596.487Y4.808
X601.25Y42.907
X602.996Y-14.242
X605.377Y4.808
X606.012Y66.72
X606.012Y23.857
X610.14Y42.907
X613.156Y-14.242
X614.902Y23.857
X615.538Y4.808
X619.665Y66.72
X620.3Y42.907
X624.428Y4.808
X625.062Y23.857
X626.332Y-16.148
X629.19Y42.907
X629.825Y66.72
X633.952Y23.857
X634.587Y4.808
X636.492Y-16.148
X638.715Y66.72
X639.35Y42.907
X644.112Y23.857
X645.382Y2.902
X645.382Y-16.148
X648.875Y66.72
X655.384Y33.383
X655.543Y2.902
X655.543Y-16.148
X657.765Y66.72
X664.433Y-16.148
X665.543Y33.383
X667.925Y66.72
X674.592Y-16.148
T3
X554.26Y45.447
X559.022Y69.26
X559.022Y26.397
X560.61Y47.987
X561.404Y-11.702
X565.372Y71.8
X565.372Y28.938
X567.754Y-9.162
X568.548Y7.347
X573.31Y45.447
X574.897Y9.887
X578.072Y69.26
X578.072Y26.397
X579.66Y47.987
X582.835Y-11.702
X584.423Y71.8
X584.423Y28.938
X587.597Y7.347
X589.185Y-9.162
X592.36Y45.447
X593.947Y9.887
X597.122Y69.26
X597.122Y26.397
X598.71Y47.987
X603.472Y71.8
X603.472Y28.938
X604.266Y-11.702
X606.647Y7.347
X610.616Y-9.162
X611.41Y45.447
X612.997Y9.887
X616.173Y26.397
X617.76Y47.987
X620.935Y69.26
X622.522Y28.938
X625.697Y7.347
X627.285Y71.8
X627.602Y-13.607
X630.46Y45.447
X632.048Y9.887
X633.952Y-11.067
X635.222Y26.397
X636.81Y47.987
X639.985Y69.26
X641.572Y28.938
X646.335Y71.8
X646.652Y5.442
X646.652Y-13.607
X653.002Y7.982
X653.002Y-11.067
X656.654Y35.922
X659.035Y69.26
X663.003Y38.462
X665.385Y71.8
X665.702Y-13.607
X672.053Y-11.067
T4
X667.448Y45.32
X667.448Y21.444
T5
X652.208Y45.32
X652.208Y21.444
T6
X558.07Y42.907
X562.832Y66.72
X562.832Y23.857
X565.213Y-14.242
X572.357Y4.808
X577.12Y42.907
X581.882Y66.72
X581.882Y23.857
X586.645Y-14.242
X591.408Y4.808
X596.17Y42.907
X600.933Y66.72
X600.933Y23.857
X608.076Y-14.242
X610.457Y4.808
X615.22Y42.907
X619.982Y23.857
X624.745Y66.72
X629.507Y4.808
X631.413Y-16.148
X634.27Y42.907
X639.033Y23.857
X643.795Y66.72
X650.462Y2.902
X650.462Y-16.148
X660.463Y33.383
X662.845Y66.72
X669.512Y-16.148
T0
M30
