G04 #@! TF.GenerationSoftware,KiCad,Pcbnew,7.0.8*
G04 #@! TF.CreationDate,2023-10-29T20:23:16+09:00*
G04 #@! TF.ProjectId,ckb9,636b6239-2e6b-4696-9361-645f70636258,rev?*
G04 #@! TF.SameCoordinates,Original*
G04 #@! TF.FileFunction,Copper,L1,Top*
G04 #@! TF.FilePolarity,Positive*
%FSLAX46Y46*%
G04 Gerber Fmt 4.6, Leading zero omitted, Abs format (unit mm)*
G04 Created by KiCad (PCBNEW 7.0.8) date 2023-10-29 20:23:16*
%MOMM*%
%LPD*%
G01*
G04 APERTURE LIST*
G04 #@! TA.AperFunction,ComponentPad*
%ADD10R,1.397000X1.397000*%
G04 #@! TD*
G04 #@! TA.AperFunction,SMDPad,CuDef*
%ADD11R,1.300000X0.950000*%
G04 #@! TD*
G04 #@! TA.AperFunction,ComponentPad*
%ADD12C,1.397000*%
G04 #@! TD*
G04 #@! TA.AperFunction,ComponentPad*
%ADD13O,1.700000X2.500000*%
G04 #@! TD*
G04 #@! TA.AperFunction,ComponentPad*
%ADD14C,1.524000*%
G04 #@! TD*
G04 #@! TA.AperFunction,ViaPad*
%ADD15C,0.800000*%
G04 #@! TD*
G04 #@! TA.AperFunction,Conductor*
%ADD16C,0.250000*%
G04 #@! TD*
G04 APERTURE END LIST*
D10*
X559022500Y58720000D03*
D11*
X561057500Y58720000D03*
X564607500Y58720000D03*
D12*
X566642500Y58720000D03*
D10*
X578072500Y58720000D03*
D11*
X580107500Y58720000D03*
X583657500Y58720000D03*
D12*
X585692500Y58720000D03*
D10*
X597122500Y58720000D03*
D11*
X599157500Y58720000D03*
X602707500Y58720000D03*
D12*
X604742500Y58720000D03*
D10*
X620935000Y58720000D03*
D11*
X622970000Y58720000D03*
X626520000Y58720000D03*
D12*
X628555000Y58720000D03*
D10*
X639985000Y58720000D03*
D11*
X642020000Y58720000D03*
X645570000Y58720000D03*
D12*
X647605000Y58720000D03*
D10*
X658760000Y54530000D03*
D11*
X660795000Y54530000D03*
X664345000Y54530000D03*
D12*
X666380000Y54530000D03*
D10*
X555050000Y51577500D03*
D11*
X557085000Y51577500D03*
X560635000Y51577500D03*
D12*
X562670000Y51577500D03*
D10*
X574100000Y51577500D03*
D11*
X576135000Y51577500D03*
X579685000Y51577500D03*
D12*
X581720000Y51577500D03*
D10*
X593150000Y51577500D03*
D11*
X595185000Y51577500D03*
X598735000Y51577500D03*
D12*
X600770000Y51577500D03*
D10*
X612200000Y51577500D03*
D11*
X614235000Y51577500D03*
X617785000Y51577500D03*
D12*
X619820000Y51577500D03*
D10*
X631250000Y51577500D03*
D11*
X633285000Y51577500D03*
X636835000Y51577500D03*
D12*
X638870000Y51577500D03*
D10*
X559022500Y15857500D03*
D11*
X561057500Y15857500D03*
X564607500Y15857500D03*
D12*
X566642500Y15857500D03*
D10*
X578072500Y15857500D03*
D11*
X580107500Y15857500D03*
X583657500Y15857500D03*
D12*
X585692500Y15857500D03*
D10*
X597122500Y15857500D03*
D11*
X599157500Y15857500D03*
X602707500Y15857500D03*
D12*
X604742500Y15857500D03*
D10*
X616172500Y15857500D03*
D11*
X618207500Y15857500D03*
X621757500Y15857500D03*
D12*
X623792500Y15857500D03*
D10*
X635222500Y15857500D03*
D11*
X637257500Y15857500D03*
X640807500Y15857500D03*
D12*
X642842500Y15857500D03*
D10*
X575910000Y13570000D03*
D11*
X577945000Y13570000D03*
X581495000Y13570000D03*
D12*
X583530000Y13570000D03*
D10*
X589637500Y13337500D03*
D11*
X591672500Y13337500D03*
X595222500Y13337500D03*
D12*
X597257500Y13337500D03*
D10*
X608687500Y13337500D03*
D11*
X610722500Y13337500D03*
X614272500Y13337500D03*
D12*
X616307500Y13337500D03*
D10*
X627737500Y13337500D03*
D11*
X629772500Y13337500D03*
X633322500Y13337500D03*
D12*
X635357500Y13337500D03*
D10*
X645320000Y13400000D03*
D11*
X647355000Y13400000D03*
X650905000Y13400000D03*
D12*
X652940000Y13400000D03*
D10*
X604090000Y-22360000D03*
D11*
X606125000Y-22360000D03*
X609675000Y-22360000D03*
D12*
X611710000Y-22360000D03*
D10*
X627602500Y-24147500D03*
D11*
X629637500Y-24147500D03*
X633187500Y-24147500D03*
D12*
X635222500Y-24147500D03*
D10*
X646652500Y-24147500D03*
D11*
X648687500Y-24147500D03*
X652237500Y-24147500D03*
D12*
X654272500Y-24147500D03*
D10*
X665702500Y-24147500D03*
D11*
X667737500Y-24147500D03*
X671287500Y-24147500D03*
D12*
X673322500Y-24147500D03*
D10*
X561403500Y-22242500D03*
D11*
X563438500Y-22242500D03*
X566988500Y-22242500D03*
D12*
X569023500Y-22242500D03*
D10*
X582800000Y-22290000D03*
D11*
X584835000Y-22290000D03*
X588385000Y-22290000D03*
D12*
X590420000Y-22290000D03*
D10*
X656653500Y25382500D03*
D11*
X658688500Y25382500D03*
X662238500Y25382500D03*
D12*
X664273500Y25382500D03*
D13*
X614380000Y69390000D03*
X610180000Y77890000D03*
X610180000Y74890000D03*
X610180000Y70890000D03*
D14*
X675550000Y74720000D03*
X673010000Y74720000D03*
X670470000Y74720000D03*
X667930000Y74720000D03*
X665390000Y74720000D03*
X662850000Y74720000D03*
X660310000Y74720000D03*
X657770000Y74720000D03*
X655230000Y74720000D03*
X655230000Y59480000D03*
X657770000Y59480000D03*
X660310000Y59480000D03*
X662850000Y59480000D03*
X665390000Y59480000D03*
X667930000Y59480000D03*
X670470000Y59480000D03*
X673010000Y59480000D03*
X675550000Y59480000D03*
D15*
X651205000Y52215000D03*
X651080000Y50190000D03*
X647830000Y47010000D03*
X671890000Y-4470000D03*
X664650000Y-4580000D03*
X580050000Y-4680000D03*
X671860000Y-3000000D03*
X664510000Y-3000000D03*
X573950000Y-4760000D03*
X671790000Y-5780000D03*
X577260000Y-5405000D03*
X664530000Y-5740000D03*
X606080000Y56330000D03*
X554632500Y56317500D03*
X572380000Y55110000D03*
X606020000Y55100000D03*
D16*
X597092500Y57312500D02*
X597122500Y57342500D01*
X622970000Y58720000D02*
X620935000Y58720000D01*
X620935000Y58720000D02*
X620935000Y57295000D01*
X655142500Y57312500D02*
X655230000Y57400000D01*
X559042500Y57677500D02*
X559407500Y57312500D01*
X559407500Y57312500D02*
X578072500Y57312500D01*
X655230000Y55180000D02*
X655839990Y54570010D01*
X620917500Y57312500D02*
X620935000Y57295000D01*
X639942500Y57312500D02*
X655142500Y57312500D01*
X620917500Y57312500D02*
X639942500Y57312500D01*
X639942500Y57312500D02*
X639985000Y57355000D01*
X559022500Y57677500D02*
X559022500Y58720000D01*
X597122500Y58720000D02*
X599157500Y58720000D01*
X578072500Y58720000D02*
X578072500Y57312500D01*
X561057500Y58720000D02*
X559022500Y58720000D01*
X597122500Y58720000D02*
X597122500Y57342500D01*
X660795000Y54530000D02*
X658760000Y54530000D01*
X580107500Y58720000D02*
X578072500Y58720000D01*
X655839990Y54570010D02*
X658719990Y54570010D01*
X578072500Y57312500D02*
X597092500Y57312500D01*
X655230000Y59480000D02*
X655230000Y57400000D01*
X658719990Y54570010D02*
X658760000Y54530000D01*
X642020000Y58720000D02*
X639985000Y58720000D01*
X639985000Y58720000D02*
X639985000Y57355000D01*
X655230000Y57400000D02*
X655230000Y55180000D01*
X559022500Y57677500D02*
X559042500Y57677500D01*
X597092500Y57312500D02*
X620917500Y57312500D01*
X632230000Y54130000D02*
X633285000Y53075000D01*
X612200000Y51577500D02*
X614235000Y51577500D01*
X576135000Y51577500D02*
X576135000Y54065000D01*
X651205000Y52215000D02*
X649300000Y54120000D01*
X576135000Y51577500D02*
X574100000Y51577500D01*
X633285000Y53075000D02*
X633285000Y51577500D01*
X668949982Y42732802D02*
X670209980Y43992800D01*
X614235000Y54105000D02*
X614260000Y54130000D01*
X670209980Y46557200D02*
X668257180Y48510000D01*
X557085000Y51577500D02*
X557085000Y52085000D01*
X658688500Y25382500D02*
X658688500Y24931500D01*
X668949981Y25139981D02*
X668949982Y42732802D01*
X656653500Y25382500D02*
X658688500Y25382500D01*
X658688500Y24931500D02*
X659261001Y24358999D01*
X649300000Y54120000D02*
X634330000Y54120000D01*
X595260000Y54130000D02*
X614260000Y54130000D01*
X670209980Y43992800D02*
X670209980Y46557200D01*
X555050000Y51577500D02*
X557085000Y51577500D01*
X576200000Y54130000D02*
X595260000Y54130000D01*
X595185000Y54055000D02*
X595260000Y54130000D01*
X633285000Y51577500D02*
X631250000Y51577500D01*
X557085000Y52085000D02*
X559130000Y54130000D01*
X576135000Y54065000D02*
X576200000Y54130000D01*
X668257180Y48510000D02*
X654910000Y48510000D01*
X614260000Y54130000D02*
X632230000Y54130000D01*
X614235000Y51577500D02*
X614235000Y54105000D01*
X559130000Y54130000D02*
X576200000Y54130000D01*
X668168999Y24358999D02*
X668949981Y25139981D01*
X595185000Y51577500D02*
X595185000Y54055000D01*
X595185000Y51577500D02*
X593150000Y51577500D01*
X659261001Y24358999D02*
X668168999Y24358999D01*
X654910000Y48510000D02*
X651205000Y52215000D01*
X634330000Y54120000D02*
X633285000Y53075000D01*
X573570000Y18080000D02*
X574610000Y17040000D01*
X599230000Y17040000D02*
X618310000Y17040000D01*
X599157500Y15857500D02*
X599157500Y16967500D01*
X618310000Y17040000D02*
X636075000Y17040000D01*
X635222500Y15857500D02*
X637257500Y15857500D01*
X616172500Y15857500D02*
X618207500Y15857500D01*
X559022500Y15857500D02*
X561057500Y15857500D01*
X563170000Y17070000D02*
X569850000Y17070000D01*
X578072500Y15857500D02*
X580107500Y15857500D01*
X570860000Y18080000D02*
X573570000Y18080000D01*
X599157500Y16967500D02*
X599230000Y17040000D01*
X561057500Y15857500D02*
X561957500Y15857500D01*
X580107500Y16967500D02*
X580180000Y17040000D01*
X651080000Y50190000D02*
X647870000Y46980000D01*
X647870000Y46980000D02*
X647860000Y46980000D01*
X618207500Y15857500D02*
X618207500Y16937500D01*
X580180000Y17040000D02*
X599230000Y17040000D01*
X647860000Y46980000D02*
X647830000Y47010000D01*
X569850000Y17070000D02*
X570860000Y18080000D01*
X574610000Y17040000D02*
X580180000Y17040000D01*
X618207500Y16937500D02*
X618310000Y17040000D01*
X636075000Y17040000D02*
X637257500Y15857500D01*
X580107500Y15857500D02*
X580107500Y16967500D01*
X597122500Y15857500D02*
X599157500Y15857500D01*
X561957500Y15857500D02*
X563170000Y17070000D01*
X662944782Y59480000D02*
X662850000Y59480000D01*
X670309990Y20246400D02*
X670309990Y22663600D01*
X577420000Y12070000D02*
X589640000Y12070000D01*
X608687500Y12077500D02*
X608687500Y13337500D01*
X575920000Y13570000D02*
X577420000Y12070000D01*
X627740000Y12070000D02*
X627740000Y13335000D01*
X645260000Y13400000D02*
X643930000Y12070000D01*
X670309990Y22663600D02*
X669399990Y23573600D01*
X669399990Y48003600D02*
X669399990Y54770010D01*
X608680000Y12070000D02*
X627740000Y12070000D01*
X645320000Y13400000D02*
X645260000Y13400000D01*
X645320000Y13400000D02*
X647355000Y13400000D01*
X669399990Y19336400D02*
X669716795Y19653205D01*
X645320000Y13400000D02*
X645320000Y13580000D01*
X589637500Y13337500D02*
X591672500Y13337500D01*
X589640000Y12070000D02*
X589637500Y12072500D01*
X589640000Y12070000D02*
X608680000Y12070000D01*
X670659990Y46743600D02*
X669399990Y48003600D01*
X669399990Y54770010D02*
X667240000Y56930000D01*
X666347609Y57842391D02*
X664582391Y57842391D01*
X664582391Y57842391D02*
X662944782Y59480000D01*
X608680000Y12070000D02*
X608687500Y12077500D01*
X667240000Y56950000D02*
X666347609Y57842391D01*
X669399990Y18319990D02*
X669399990Y19336400D01*
X589637500Y12072500D02*
X589637500Y13337500D01*
X627740000Y13335000D02*
X627737500Y13337500D01*
X668420000Y17340000D02*
X669399990Y18319990D01*
X608687500Y13337500D02*
X610722500Y13337500D01*
X669553600Y19490010D02*
X669716795Y19653205D01*
X667240000Y56930000D02*
X667240000Y56950000D01*
X575910000Y13570000D02*
X577945000Y13570000D01*
X669399990Y23573600D02*
X669399991Y42546401D01*
X627737500Y13337500D02*
X629772500Y13337500D01*
X645320000Y13580000D02*
X649080000Y17340000D01*
X669716795Y19653205D02*
X670309990Y20246400D01*
X627740000Y12070000D02*
X643930000Y12070000D01*
X649080000Y17340000D02*
X668420000Y17340000D01*
X669399991Y42546401D02*
X670659990Y43806400D01*
X670659990Y43806400D02*
X670659990Y46743600D01*
X575910000Y13570000D02*
X575920000Y13570000D01*
X669850000Y48190000D02*
X671110000Y46930000D01*
X606125000Y-22360000D02*
X606125000Y-23665000D01*
X618510000Y-23700000D02*
X620080000Y-22130000D01*
X584780000Y-23700000D02*
X606090000Y-23700000D01*
X671110000Y46930000D02*
X671110000Y43620000D01*
X604090000Y-22360000D02*
X606125000Y-22360000D01*
X629710000Y-22130000D02*
X648690000Y-22130000D01*
X606125000Y-23665000D02*
X606090000Y-23700000D01*
X646652500Y-24147500D02*
X648687500Y-24147500D01*
X582800000Y-22290000D02*
X584835000Y-22290000D01*
X648687500Y-22132500D02*
X648690000Y-22130000D01*
X669850000Y42360000D02*
X669850000Y23760000D01*
X671110000Y43620000D02*
X669850000Y42360000D01*
X667737500Y-23217500D02*
X667737500Y-24147500D01*
X669850000Y55020000D02*
X669850000Y48190000D01*
X648687500Y-24147500D02*
X648687500Y-22132500D01*
X659980000Y-11460000D02*
X659980000Y-22130000D01*
X669850000Y23760000D02*
X670760000Y22850000D01*
X670760000Y22850000D02*
X670760000Y20060000D01*
X584835000Y-22290000D02*
X584835000Y-23645000D01*
X606090000Y-23700000D02*
X618510000Y-23700000D01*
X563438500Y-22242500D02*
X564896000Y-23700000D01*
X564896000Y-23700000D02*
X584780000Y-23700000D01*
X629637500Y-22202500D02*
X629710000Y-22130000D01*
X629637500Y-24147500D02*
X629637500Y-22202500D01*
X665702500Y-24147500D02*
X667737500Y-24147500D01*
X669850000Y-1590000D02*
X659980000Y-11460000D01*
X670760000Y20060000D02*
X669850000Y19150000D01*
X665390000Y59480000D02*
X669850000Y55020000D01*
X669850000Y19150000D02*
X669850000Y-1590000D01*
X561403500Y-22242500D02*
X563438500Y-22242500D01*
X620080000Y-22130000D02*
X629710000Y-22130000D01*
X584835000Y-23645000D02*
X584780000Y-23700000D01*
X659980000Y-22130000D02*
X666650000Y-22130000D01*
X666650000Y-22130000D02*
X667737500Y-23217500D01*
X648690000Y-22130000D02*
X659980000Y-22130000D01*
X627602500Y-24147500D02*
X629637500Y-24147500D01*
X580050000Y-4680000D02*
X586120000Y-4680000D01*
X626433600Y61000010D02*
X626450601Y61017011D01*
X586120000Y-4680000D02*
X586190000Y-4610000D01*
X664620000Y-4610000D02*
X664650000Y-4580000D01*
X610430000Y70640000D02*
X610430000Y61790000D01*
X610180000Y70890000D02*
X610430000Y70640000D01*
X610430000Y61790000D02*
X611219990Y61000010D01*
X611219990Y61000010D02*
X626433600Y61000010D01*
X675550000Y59480000D02*
X675550000Y-540000D01*
X626450601Y61017011D02*
X674012989Y61017011D01*
X675550000Y-810000D02*
X675550000Y-540000D01*
X674012989Y61017011D02*
X675550000Y59480000D01*
X671890000Y-4470000D02*
X675550000Y-810000D01*
X586190000Y-4610000D02*
X664620000Y-4610000D01*
X609760000Y60550000D02*
X609004990Y61305010D01*
X577270000Y-3000000D02*
X575710000Y-3000000D01*
X675090000Y54970000D02*
X675090000Y230000D01*
X673010000Y57050000D02*
X675090000Y54970000D01*
X673010000Y59480000D02*
X673010000Y57050000D01*
X673010000Y59480000D02*
X671922999Y60567001D01*
X675090000Y230000D02*
X671860000Y-3000000D01*
X626637001Y60567001D02*
X626620000Y60550000D01*
X671922999Y60567001D02*
X626637001Y60567001D01*
X626620000Y60550000D02*
X609760000Y60550000D01*
X575710000Y-3000000D02*
X573950000Y-4760000D01*
X664510000Y-3000000D02*
X577270000Y-3000000D01*
X609004990Y61305010D02*
X609004990Y73714990D01*
X609004990Y73714990D02*
X610180000Y74890000D01*
X664195000Y-5405000D02*
X664530000Y-5740000D01*
X676637001Y55997001D02*
X676000010Y55360010D01*
X676000010Y-1569990D02*
X676000010Y-869990D01*
X676637001Y71092999D02*
X676637001Y70580000D01*
X671790000Y-5780000D02*
X676000010Y-1569990D01*
X673010000Y74720000D02*
X676637001Y71092999D01*
X676637001Y70580000D02*
X676637001Y55997001D01*
X577260000Y-5405000D02*
X664195000Y-5405000D01*
X676000010Y55360010D02*
X676000010Y-869990D01*
X676000010Y-869990D02*
X676000010Y-1432992D01*
X554645000Y56330000D02*
X554632500Y56317500D01*
X606080000Y56330000D02*
X554645000Y56330000D01*
X606020000Y55100000D02*
X572390000Y55100000D01*
X572390000Y55100000D02*
X572380000Y55110000D01*
X564607500Y58720000D02*
X566642500Y58720000D01*
X585692500Y58720000D02*
X583657500Y58720000D01*
X604742500Y58720000D02*
X602707500Y58720000D01*
X628555000Y58720000D02*
X626520000Y58720000D01*
X647605000Y58720000D02*
X645570000Y58720000D01*
X664345000Y54530000D02*
X666380000Y54530000D01*
X562670000Y51577500D02*
X560635000Y51577500D01*
X579685000Y51577500D02*
X581720000Y51577500D01*
X600770000Y51577500D02*
X598735000Y51577500D01*
X617785000Y51577500D02*
X619820000Y51577500D01*
X638870000Y51577500D02*
X636835000Y51577500D01*
X564607500Y15857500D02*
X566642500Y15857500D01*
X583657500Y15857500D02*
X585692500Y15857500D01*
X602707500Y15857500D02*
X604742500Y15857500D01*
X621757500Y15857500D02*
X623792500Y15857500D01*
X640807500Y15857500D02*
X642842500Y15857500D01*
X581495000Y13570000D02*
X583530000Y13570000D01*
X595222500Y13337500D02*
X597257500Y13337500D01*
X614272500Y13337500D02*
X616307500Y13337500D01*
X633322500Y13337500D02*
X635357500Y13337500D01*
X650905000Y13400000D02*
X652940000Y13400000D01*
X588385000Y-22290000D02*
X590420000Y-22290000D01*
X633187500Y-24147500D02*
X635222500Y-24147500D01*
X652237500Y-24147500D02*
X654272500Y-24147500D01*
X671287500Y-24147500D02*
X673322500Y-24147500D01*
X566988500Y-22242500D02*
X569023500Y-22242500D01*
X609675000Y-22360000D02*
X611710000Y-22360000D01*
X662238500Y25382500D02*
X664273500Y25382500D01*
M02*
