G04 #@! TF.GenerationSoftware,KiCad,Pcbnew,7.0.8*
G04 #@! TF.CreationDate,2023-10-29T20:23:16+09:00*
G04 #@! TF.ProjectId,ckb9,636b6239-2e6b-4696-9361-645f70636258,rev?*
G04 #@! TF.SameCoordinates,Original*
G04 #@! TF.FileFunction,Paste,Bot*
G04 #@! TF.FilePolarity,Positive*
%FSLAX46Y46*%
G04 Gerber Fmt 4.6, Leading zero omitted, Abs format (unit mm)*
G04 Created by KiCad (PCBNEW 7.0.8) date 2023-10-29 20:23:16*
%MOMM*%
%LPD*%
G01*
G04 APERTURE LIST*
%ADD10R,1.300000X0.950000*%
%ADD11R,2.550000X2.500000*%
G04 APERTURE END LIST*
D10*
X561057500Y58720000D03*
X564607500Y58720000D03*
X580107500Y58720000D03*
X583657500Y58720000D03*
X599157500Y58720000D03*
X602707500Y58720000D03*
X622970000Y58720000D03*
X626520000Y58720000D03*
X642020000Y58720000D03*
X645570000Y58720000D03*
X660795000Y54530000D03*
X664345000Y54530000D03*
X557085000Y51577500D03*
X560635000Y51577500D03*
X576135000Y51577500D03*
X579685000Y51577500D03*
X595185000Y51577500D03*
X598735000Y51577500D03*
X614235000Y51577500D03*
X617785000Y51577500D03*
X633285000Y51577500D03*
X636835000Y51577500D03*
X561057500Y15857500D03*
X564607500Y15857500D03*
X580107500Y15857500D03*
X583657500Y15857500D03*
X599157500Y15857500D03*
X602707500Y15857500D03*
X618207500Y15857500D03*
X621757500Y15857500D03*
X637257500Y15857500D03*
X640807500Y15857500D03*
X577945000Y13570000D03*
X581495000Y13570000D03*
X591672500Y13337500D03*
X595222500Y13337500D03*
X610722500Y13337500D03*
X614272500Y13337500D03*
X629772500Y13337500D03*
X633322500Y13337500D03*
X647355000Y13400000D03*
X650905000Y13400000D03*
X606125000Y-22360000D03*
X609675000Y-22360000D03*
X629637500Y-24147500D03*
X633187500Y-24147500D03*
X648687500Y-24147500D03*
X652237500Y-24147500D03*
X667737500Y-24147500D03*
X671287500Y-24147500D03*
X563438500Y-22242500D03*
X566988500Y-22242500D03*
X584835000Y-22290000D03*
X588385000Y-22290000D03*
X658688500Y25382500D03*
X662238500Y25382500D03*
D11*
X555747500Y69260000D03*
X568674500Y71800000D03*
X574797500Y69260000D03*
X587724500Y71800000D03*
X593847500Y69260000D03*
X606774500Y71800000D03*
X617660000Y69260000D03*
X630587000Y71800000D03*
X636710000Y69260000D03*
X649637000Y71800000D03*
X655760000Y69260000D03*
X668687000Y71800000D03*
X550985000Y45447500D03*
X563912000Y47987500D03*
X570035000Y45447500D03*
X582962000Y47987500D03*
X589085000Y45447500D03*
X602012000Y47987500D03*
X608135000Y45447500D03*
X621062000Y47987500D03*
X627185000Y45447500D03*
X640112000Y47987500D03*
X555747500Y26397500D03*
X568674500Y28937500D03*
X574797500Y26397500D03*
X587724500Y28937500D03*
X593847500Y26397500D03*
X606774500Y28937500D03*
X612897500Y26397500D03*
X625824500Y28937500D03*
X631947500Y26397500D03*
X644874500Y28937500D03*
X565272500Y7347500D03*
X578199500Y9887500D03*
X584322500Y7347500D03*
X597249500Y9887500D03*
X603372500Y7347500D03*
X616299500Y9887500D03*
X622422500Y7347500D03*
X635349500Y9887500D03*
X643377500Y5442500D03*
X656304500Y7982500D03*
X600991000Y-11702500D03*
X613918000Y-9162500D03*
X624327500Y-13607500D03*
X637254500Y-11067500D03*
X643377500Y-13607500D03*
X656304500Y-11067500D03*
X662427500Y-13607500D03*
X675354500Y-11067500D03*
X558128500Y-11702500D03*
X571055500Y-9162500D03*
X579560000Y-11702500D03*
X592487000Y-9162500D03*
X653378500Y35922500D03*
X666305500Y38462500D03*
M02*
