G04 #@! TF.GenerationSoftware,KiCad,Pcbnew,7.0.8*
G04 #@! TF.CreationDate,2023-10-10T15:47:36+09:00*
G04 #@! TF.ProjectId,ckb9,636b6239-2e6b-4696-9361-645f70636258,rev?*
G04 #@! TF.SameCoordinates,Original*
G04 #@! TF.FileFunction,Profile,NP*
%FSLAX46Y46*%
G04 Gerber Fmt 4.6, Leading zero omitted, Abs format (unit mm)*
G04 Created by KiCad (PCBNEW 7.0.8) date 2023-10-10 15:47:36*
%MOMM*%
%LPD*%
G01*
G04 APERTURE LIST*
G04 #@! TA.AperFunction,Profile*
%ADD10C,0.100000*%
G04 #@! TD*
G04 #@! TA.AperFunction,Profile*
%ADD11C,0.150000*%
G04 #@! TD*
G04 APERTURE END LIST*
D10*
X404575000Y-386771000D02*
X409274000Y-386771000D01*
X387845000Y-382296700D02*
X387845000Y-396296000D01*
X342889000Y-420396600D02*
X356888000Y-420396600D01*
X401775000Y-395046100D02*
X401775000Y-395870100D01*
X297645000Y-353433500D02*
X297645000Y-339434200D01*
X300025000Y-434396090D02*
X300025000Y-420396600D01*
X397658000Y-353433500D02*
X397658000Y-339434200D01*
X311933000Y-363246700D02*
X325932000Y-363246700D01*
X297645000Y-382296700D02*
X311645000Y-382296700D01*
X316695000Y-353433500D02*
X316695000Y-339434200D01*
D11*
X409520000Y-444540000D02*
X409520000Y-440540000D01*
X290379970Y-378779952D02*
G75*
G03*
X291380472Y-379790000I1000040J-9958D01*
G01*
D10*
X359558000Y-353433500D02*
X359558000Y-339434200D01*
X404575000Y-371246300D02*
X407805000Y-371246300D01*
D11*
X343160020Y-328020000D02*
G75*
G03*
X342160000Y-327020000I-1000010J-10D01*
G01*
D10*
X364032000Y-363246700D02*
X364032000Y-377246000D01*
X340220000Y-401346700D02*
X340220000Y-415346100D01*
X378608000Y-353433500D02*
X378608000Y-339434200D01*
D11*
X295140518Y-380800000D02*
G75*
G03*
X294140000Y-379789952I-1000008J9990D01*
G01*
D10*
X369083000Y-377246000D02*
X369083000Y-363246700D01*
X340220000Y-415346100D02*
X326220000Y-415346100D01*
D11*
X421030000Y-440540000D02*
X409520000Y-440540000D01*
D10*
X373557000Y-353433500D02*
X359558000Y-353433500D01*
X373557000Y-339434200D02*
X373557000Y-353433500D01*
X316695000Y-382296700D02*
X330695000Y-382296700D01*
D11*
X295140000Y-355990000D02*
X290380000Y-360750000D01*
X296140000Y-398840048D02*
X303660000Y-398840000D01*
X409310020Y-328020000D02*
G75*
G03*
X408310000Y-327020000I-1000010J-10D01*
G01*
X291380000Y-379790000D02*
X294140000Y-379789952D01*
D10*
X335745000Y-353433500D02*
X335745000Y-339434200D01*
X321170000Y-401346700D02*
X321170000Y-415346100D01*
X330695000Y-339434200D02*
X330695000Y-353433500D01*
X404575000Y-363671100D02*
X401775000Y-363671100D01*
X368795000Y-382296700D02*
X368795000Y-396296000D01*
X297645000Y-339434200D02*
X311645000Y-339434200D01*
X368795000Y-396296000D02*
X354795000Y-396296000D01*
X307170000Y-415346100D02*
X307170000Y-401346700D01*
X383082000Y-377246000D02*
X369083000Y-377246000D01*
X411657000Y-353433500D02*
X397658000Y-353433500D01*
D11*
X295140022Y-397830000D02*
G75*
G03*
X296140472Y-398840048I999988J-10010D01*
G01*
D10*
X344982000Y-377246000D02*
X330983000Y-377246000D01*
X311645000Y-382296700D02*
X311645000Y-396296000D01*
X344982000Y-363246700D02*
X344982000Y-377246000D01*
D11*
X369520000Y-440540000D02*
X369520000Y-444540000D01*
X369310000Y-328020000D02*
X369310000Y-332020000D01*
D10*
X321458000Y-420396600D02*
X335457000Y-420396600D01*
X418324000Y-422301000D02*
X418324000Y-436300530D01*
X297645000Y-396296000D02*
X297645000Y-382296700D01*
X392607000Y-353433500D02*
X378608000Y-353433500D01*
D11*
X422340020Y-333330000D02*
G75*
G03*
X421030000Y-332020000I-1310010J-10D01*
G01*
X421030000Y-332020000D02*
X409310000Y-332020000D01*
D10*
X407805000Y-369520800D02*
X408726000Y-369520800D01*
X330983000Y-377246000D02*
X330983000Y-363246700D01*
X404575000Y-372771701D02*
X404575000Y-371246300D01*
X311933000Y-377246000D02*
X311933000Y-363246700D01*
X325932000Y-363246700D02*
X325932000Y-377246000D01*
X292883000Y-377246000D02*
X292883000Y-363246700D01*
X306882000Y-377246000D02*
X292883000Y-377246000D01*
X306882000Y-363246700D02*
X306882000Y-377246000D01*
X335745000Y-339434200D02*
X349745000Y-339434200D01*
X411657000Y-339434200D02*
X411657000Y-353433500D01*
X395505000Y-366220200D02*
X394525000Y-366220200D01*
D11*
X295130000Y-440540000D02*
X303050000Y-440540000D01*
D10*
X292883000Y-363246700D02*
X306882000Y-363246700D01*
X373845000Y-396296000D02*
X373845000Y-382296700D01*
X395505000Y-371246300D02*
X399975000Y-371246300D01*
X408726000Y-369520800D02*
X408726000Y-366220200D01*
D11*
X343050000Y-440540000D02*
X369520000Y-440540000D01*
D10*
X407805000Y-364496600D02*
X404575000Y-364496600D01*
X342889000Y-434396090D02*
X342889000Y-420396600D01*
X395505000Y-388296700D02*
X395505000Y-390020400D01*
X399975000Y-372771701D02*
X395275000Y-372771701D01*
X349745000Y-353433500D02*
X335745000Y-353433500D01*
X407805000Y-371246300D02*
X407805000Y-369520800D01*
X407805000Y-395046100D02*
X407805000Y-393321000D01*
X399975000Y-386771000D02*
X399975000Y-388296700D01*
X409274000Y-372771701D02*
X404575000Y-372771701D01*
X314026000Y-434396090D02*
X300025000Y-434396090D01*
X409274000Y-386771000D02*
X409274000Y-372771701D01*
X311645000Y-353433500D02*
X297645000Y-353433500D01*
X325932000Y-377246000D02*
X311933000Y-377246000D01*
X407805000Y-388296700D02*
X404575000Y-388296700D01*
X395505000Y-364496600D02*
X395505000Y-366220200D01*
D11*
X369310000Y-332020000D02*
X343160000Y-332020000D01*
D10*
X407805000Y-390020400D02*
X407805000Y-388296700D01*
X399975000Y-388296700D02*
X395505000Y-388296700D01*
X359558000Y-339434200D02*
X373557000Y-339434200D01*
X399274000Y-417250500D02*
X385275000Y-417250500D01*
X378608000Y-339434200D02*
X392607000Y-339434200D01*
X401775000Y-363671100D02*
X401775000Y-364496600D01*
X404325000Y-422301000D02*
X418324000Y-422301000D01*
X408726000Y-390020400D02*
X407805000Y-390020400D01*
X408726000Y-393321000D02*
X408726000Y-390020400D01*
X407805000Y-393321000D02*
X408726000Y-393321000D01*
X401775000Y-395870100D02*
X404575000Y-395870100D01*
D11*
X304160000Y-327020000D02*
G75*
G03*
X303160000Y-328020000I10J-1000010D01*
G01*
D10*
X395505000Y-395046100D02*
X401775000Y-395046100D01*
X350033000Y-363246700D02*
X364032000Y-363246700D01*
X394525000Y-393321000D02*
X395505000Y-393321000D01*
X404575000Y-395046100D02*
X407805000Y-395046100D01*
X356888000Y-420396600D02*
X356888000Y-434396090D01*
X394525000Y-390020400D02*
X394525000Y-393321000D01*
X397658000Y-339434200D02*
X411657000Y-339434200D01*
X395505000Y-390020400D02*
X394525000Y-390020400D01*
D11*
X408520000Y-445540000D02*
G75*
G03*
X409520000Y-444540000I10J999990D01*
G01*
D10*
X395275000Y-386771000D02*
X399975000Y-386771000D01*
X385275000Y-422301000D02*
X399274000Y-422301000D01*
X369083000Y-363246700D02*
X383082000Y-363246700D01*
X395275000Y-372771701D02*
X395275000Y-386771000D01*
X399975000Y-371246300D02*
X399975000Y-372771701D01*
X394525000Y-369520800D02*
X395505000Y-369520800D01*
X394525000Y-366220200D02*
X394525000Y-369520800D01*
X401775000Y-364496600D02*
X395505000Y-364496600D01*
D11*
X422340000Y-333330000D02*
X422340000Y-439230000D01*
D10*
X354795000Y-396296000D02*
X354795000Y-382296700D01*
D11*
X342050000Y-445540000D02*
G75*
G03*
X343050000Y-444540000I10J999990D01*
G01*
D10*
X366225000Y-422301000D02*
X380224000Y-422301000D01*
D11*
X303650000Y-417890000D02*
X296140000Y-417890000D01*
X343160000Y-332020000D02*
X343160000Y-328020000D01*
D10*
X335745000Y-396296000D02*
X335745000Y-382296700D01*
X349745000Y-396296000D02*
X335745000Y-396296000D01*
X383082000Y-363246700D02*
X383082000Y-377246000D01*
X335745000Y-382296700D02*
X349745000Y-382296700D01*
X316695000Y-396296000D02*
X316695000Y-382296700D01*
X330695000Y-396296000D02*
X316695000Y-396296000D01*
X408726000Y-366220200D02*
X407805000Y-366220200D01*
X392607000Y-339434200D02*
X392607000Y-353433500D01*
D11*
X303160000Y-328020000D02*
X303160000Y-332020000D01*
X370520000Y-445540000D02*
X408520000Y-445540000D01*
D10*
X311645000Y-339434200D02*
X311645000Y-353433500D01*
X330695000Y-382296700D02*
X330695000Y-396296000D01*
X311645000Y-396296000D02*
X297645000Y-396296000D01*
X349745000Y-382296700D02*
X349745000Y-396296000D01*
D11*
X408310000Y-327020000D02*
X370310000Y-327020000D01*
D10*
X364320000Y-415346100D02*
X364320000Y-401346700D01*
X326220000Y-401346700D02*
X340220000Y-401346700D01*
X404575000Y-395870100D02*
X404575000Y-395046100D01*
X378320000Y-401346700D02*
X378320000Y-415346100D01*
X364320000Y-401346700D02*
X378320000Y-401346700D01*
X404575000Y-364496600D02*
X404575000Y-363671100D01*
D11*
X303160000Y-332020000D02*
X295140000Y-332020000D01*
D10*
X404575000Y-388296700D02*
X404575000Y-386771000D01*
X345270000Y-415346100D02*
X345270000Y-401346700D01*
X407805000Y-366220200D02*
X407805000Y-364496600D01*
X359270000Y-415346100D02*
X345270000Y-415346100D01*
X359270000Y-401346700D02*
X359270000Y-415346100D01*
X395505000Y-369520800D02*
X395505000Y-371246300D01*
X345270000Y-401346700D02*
X359270000Y-401346700D01*
X326220000Y-415346100D02*
X326220000Y-401346700D01*
X321170000Y-415346100D02*
X307170000Y-415346100D01*
X364032000Y-377246000D02*
X350033000Y-377246000D01*
X307170000Y-401346700D02*
X321170000Y-401346700D01*
X373845000Y-382296700D02*
X387845000Y-382296700D01*
X385275000Y-417250500D02*
X385275000Y-403251000D01*
X399274000Y-403251000D02*
X399274000Y-417250500D01*
X385275000Y-403251000D02*
X399274000Y-403251000D01*
X349745000Y-339434200D02*
X349745000Y-353433500D01*
X356888000Y-434396090D02*
X342889000Y-434396090D01*
D11*
X303650000Y-417889998D02*
G75*
G03*
X304660048Y-416889528I10010J999988D01*
G01*
D10*
X321458000Y-434396090D02*
X321458000Y-420396600D01*
X354795000Y-382296700D02*
X368795000Y-382296700D01*
X395505000Y-393321000D02*
X395505000Y-395046100D01*
D11*
X295140000Y-332020000D02*
X295140000Y-355990000D01*
D10*
X335457000Y-434396090D02*
X321458000Y-434396090D01*
X335457000Y-420396600D02*
X335457000Y-434396090D01*
X378320000Y-415346100D02*
X364320000Y-415346100D01*
X314026000Y-420396600D02*
X314026000Y-434396090D01*
X350033000Y-377246000D02*
X350033000Y-363246700D01*
X404325000Y-436300530D02*
X404325000Y-422301000D01*
X418324000Y-436300530D02*
X404325000Y-436300530D01*
X300025000Y-420396600D02*
X314026000Y-420396600D01*
X385275000Y-436300530D02*
X385275000Y-422301000D01*
X316695000Y-339434200D02*
X330695000Y-339434200D01*
X399274000Y-436300530D02*
X385275000Y-436300530D01*
X330983000Y-363246700D02*
X344982000Y-363246700D01*
X399274000Y-422301000D02*
X399274000Y-436300530D01*
X366225000Y-436300530D02*
X366225000Y-422301000D01*
X380224000Y-422301000D02*
X380224000Y-436300530D01*
D11*
X342160000Y-327020000D02*
X304160000Y-327020000D01*
X409310000Y-332020000D02*
X409310000Y-328020000D01*
D10*
X330695000Y-353433500D02*
X316695000Y-353433500D01*
D11*
X290380000Y-360750000D02*
X290380000Y-378779952D01*
X421030000Y-440540000D02*
G75*
G03*
X422340000Y-439230000I10J1309990D01*
G01*
X295129952Y-418890000D02*
X295130000Y-440540000D01*
X296140000Y-417890002D02*
G75*
G03*
X295129952Y-418890472I-9990J-1000008D01*
G01*
D10*
X387845000Y-396296000D02*
X373845000Y-396296000D01*
D11*
X303050020Y-444540000D02*
G75*
G03*
X304050000Y-445540000I999990J-10D01*
G01*
X304660000Y-399850048D02*
X304660048Y-416890000D01*
D10*
X380224000Y-436300530D02*
X366225000Y-436300530D01*
D11*
X304659970Y-399850048D02*
G75*
G03*
X303659528Y-398840000I-999960J10038D01*
G01*
X295140000Y-380800000D02*
X295140000Y-397830000D01*
X369520020Y-444540000D02*
G75*
G03*
X370520000Y-445540000I999990J-10D01*
G01*
X303050000Y-440540000D02*
X303050000Y-444540000D01*
X343050000Y-444540000D02*
X343050000Y-440540000D01*
X370310000Y-327020000D02*
G75*
G03*
X369310000Y-328020000I10J-1000010D01*
G01*
X304050000Y-445540000D02*
X342050000Y-445540000D01*
M02*
